<svg width="145" height="48" viewBox="0 0 145 48" fill="none" xmlns="http://www.w3.org/2000/svg">
<g clip-path="url(#clip0_93_902)">
<path d="M120.405 29.2299C120.635 28.6196 120.716 27.9631 120.642 27.315C120.567 26.667 120.339 26.0462 119.976 25.5045C119.603 25.0569 119.146 24.6873 118.631 24.4168C118.116 24.1464 117.552 23.9804 116.973 23.9284L92.0913 23.6418C91.9483 23.6418 91.8053 23.4985 91.6623 23.4985C91.629 23.4735 91.602 23.4411 91.5834 23.4037C91.5648 23.3664 91.5551 23.3253 91.5551 23.2836C91.5551 23.2419 91.5648 23.2008 91.5834 23.1635C91.602 23.1262 91.629 23.0937 91.6623 23.0687C91.8053 22.7821 91.9483 22.6388 92.2343 22.6388L117.259 22.3523C118.848 22.1756 120.361 21.5781 121.643 20.6211C122.924 19.6641 123.929 18.3823 124.552 16.9075L125.982 13.1821C125.982 13.0388 126.125 12.8955 125.982 12.7523C125.204 9.28253 123.318 6.16194 120.609 3.86467C117.9 1.56739 114.516 0.219031 110.973 0.0244684C107.429 -0.170094 103.919 0.799779 100.975 2.78671C98.032 4.77364 95.8164 7.66901 94.6653 11.0329C93.1709 9.96344 91.3481 9.45609 89.5174 9.60002C87.8373 9.78773 86.2708 10.5425 85.0754 11.7403C83.88 12.938 83.1268 14.5076 82.9395 16.1911C82.8442 17.0528 82.8926 17.9243 83.0825 18.7702C80.364 18.8455 77.7821 19.9805 75.886 21.9339C73.9899 23.8873 72.9292 26.5049 72.9296 29.2299C72.9061 29.7593 72.9542 30.2895 73.0726 30.806C73.0792 30.9178 73.1265 31.0234 73.2055 31.1026C73.2846 31.1819 73.39 31.2293 73.5016 31.2358H119.404C119.69 31.2358 119.976 31.0926 119.976 30.806L120.405 29.2299Z" fill="#FAFAFA"/>
<path d="M128.269 13.1821H127.554C127.411 13.1821 127.268 13.3254 127.125 13.4687L126.124 16.9075C125.894 17.5178 125.813 18.1743 125.887 18.8223C125.962 19.4704 126.19 20.0912 126.553 20.6329C126.925 21.0805 127.382 21.4501 127.898 21.7205C128.413 21.991 128.976 22.157 129.556 22.209L134.847 22.4956C134.99 22.4956 135.133 22.6388 135.276 22.6388C135.309 22.6639 135.336 22.6963 135.355 22.7336C135.373 22.7709 135.383 22.8121 135.383 22.8538C135.383 22.8955 135.373 22.9366 135.355 22.9739C135.336 23.0112 135.309 23.0437 135.276 23.0687C135.133 23.3553 134.99 23.4985 134.704 23.4985L129.27 23.7851C127.681 23.9618 126.168 24.5593 124.886 25.5163C123.604 26.4732 122.6 27.7551 121.977 29.2299L121.691 30.5194C121.548 30.6627 121.691 30.9493 121.977 30.9493H140.853C140.911 30.9576 140.97 30.9523 141.026 30.9336C141.082 30.915 141.133 30.8835 141.174 30.8418C141.216 30.8001 141.247 30.7493 141.266 30.6933C141.285 30.6374 141.29 30.5778 141.282 30.5194C141.622 29.3054 141.814 28.0545 141.854 26.7941C141.831 23.191 140.392 19.7419 137.85 17.1941C135.307 14.6462 131.865 13.2048 128.269 13.1821Z" fill="#FAFAFA"/>
<path d="M143.713 38.9729C143.459 38.9729 143.21 38.8973 142.998 38.7556C142.786 38.6139 142.622 38.4125 142.524 38.1768C142.427 37.9412 142.401 37.6819 142.451 37.4318C142.501 37.1816 142.623 36.9518 142.803 36.7715C142.983 36.5912 143.212 36.4683 143.462 36.4186C143.712 36.3688 143.97 36.3944 144.206 36.492C144.441 36.5896 144.642 36.7548 144.783 36.9669C144.925 37.179 145 37.4283 145 37.6833C145.001 37.8529 144.968 38.0209 144.904 38.1777C144.839 38.3345 144.744 38.4769 144.625 38.5968C144.505 38.7167 144.363 38.8116 144.206 38.8762C144.05 38.9407 143.882 38.9736 143.713 38.9729ZM143.713 36.6804C143.515 36.6804 143.322 36.7392 143.157 36.8494C142.992 36.9596 142.864 37.1163 142.788 37.2995C142.713 37.4828 142.693 37.6845 142.731 37.879C142.77 38.0736 142.865 38.2523 143.005 38.3926C143.145 38.5328 143.324 38.6284 143.518 38.6671C143.712 38.7058 143.913 38.6859 144.096 38.61C144.279 38.5341 144.435 38.4055 144.545 38.2406C144.655 38.0756 144.714 37.8817 144.714 37.6833C144.717 37.5508 144.694 37.4189 144.644 37.2957C144.595 37.1726 144.522 37.0607 144.428 36.9669C144.335 36.8731 144.223 36.7994 144.1 36.7501C143.977 36.7009 143.845 36.6771 143.713 36.6804ZM144.285 38.3998H143.999L143.713 37.9699H143.427V38.3998H143.141V37.1102H143.856C143.914 37.1019 143.974 37.1072 144.03 37.1259C144.085 37.1446 144.136 37.176 144.178 37.2177C144.219 37.2594 144.251 37.3102 144.269 37.3662C144.288 37.4221 144.293 37.4817 144.285 37.5401C144.285 37.6834 144.142 37.8266 143.999 37.9699L144.285 38.3998ZM143.856 37.6833C143.999 37.6833 143.999 37.6834 143.999 37.5401C144 37.5211 143.996 37.5023 143.989 37.4848C143.982 37.4672 143.971 37.4512 143.958 37.4379C143.945 37.4245 143.929 37.4139 143.911 37.4069C143.894 37.3998 143.875 37.3964 143.856 37.3968H143.427V37.8266H143.856V37.6833ZM15.5869 36.3938H18.7328V44.9908H24.1668V47.7132H15.5869V36.3938ZM27.4557 41.9819C27.4558 41.186 27.617 40.3984 27.9297 39.6667C28.2424 38.9351 28.7001 38.2747 29.275 37.7255C29.8498 37.1762 30.53 36.7496 31.2742 36.4715C32.0184 36.1933 32.8112 36.0694 33.6046 36.1072C34.3906 36.0718 35.1756 36.1983 35.9108 36.4791C36.646 36.7599 37.3158 37.189 37.8788 37.7397C38.4419 38.2904 38.8861 38.9511 39.1839 39.6808C39.4818 40.4105 39.627 41.1937 39.6105 41.9819C39.6105 42.7778 39.4492 43.5654 39.1365 44.297C38.8238 45.0286 38.3662 45.689 37.7913 46.2382C37.2164 46.7875 36.5363 47.2141 35.7921 47.4922C35.0479 47.7704 34.255 47.8943 33.4616 47.8565C32.6787 47.8798 31.899 47.7449 31.1693 47.4597C30.4395 47.1746 29.7745 46.745 29.214 46.1968C28.6535 45.6485 28.2089 44.9927 27.9068 44.2686C27.6047 43.5444 27.4513 42.7667 27.4557 41.9819ZM36.4646 41.9819C36.4926 41.5846 36.44 41.1859 36.3098 40.8096C36.1797 40.4334 35.9748 40.0875 35.7075 39.7928C35.4401 39.4982 35.116 39.2609 34.7545 39.0954C34.3931 38.9298 34.0019 38.8394 33.6046 38.8296C32.8335 38.8673 32.1065 39.2008 31.5741 39.761C31.0416 40.3211 30.7447 41.065 30.7447 41.8386C30.7447 42.6121 31.0416 43.356 31.5741 43.9162C32.1065 44.4763 32.8335 44.8098 33.6046 44.8475C35.3206 45.1341 36.4646 43.7013 36.4646 41.9819ZM43.4715 42.6983V36.3938H46.6175V42.6983C46.6175 44.2744 47.4754 45.1341 48.7624 45.1341C49.063 45.1591 49.3653 45.1158 49.6468 45.0072C49.9283 44.8987 50.1816 44.7278 50.3879 44.5073C50.5942 44.2868 50.7481 44.0225 50.838 43.734C50.928 43.4456 50.9517 43.1405 50.9074 42.8416V36.3938H54.0534V42.6983C54.0534 46.4236 51.9084 47.9998 48.7624 47.9998C45.4735 47.8565 43.4715 46.2804 43.4715 42.6983ZM58.7723 36.3938H63.2052C67.2092 36.3938 69.6401 38.6863 69.6401 41.9819C69.6401 45.2774 67.2092 47.7132 63.2052 47.7132H58.9153V36.3938H58.7723ZM63.2052 44.8475C63.6037 44.8856 64.0058 44.8399 64.3856 44.7132C64.7654 44.5865 65.1146 44.3817 65.4108 44.1119C65.707 43.8421 65.9436 43.5133 66.1056 43.1464C66.2675 42.7796 66.3512 42.383 66.3512 41.9819C66.3512 41.5808 66.2675 41.1841 66.1056 40.8173C65.9436 40.4505 65.707 40.1216 65.4108 39.8518C65.1146 39.582 64.7654 39.3772 64.3856 39.2505C64.0058 39.1238 63.6037 39.0781 63.2052 39.1162H61.9182V44.8475H63.2052ZM74.0731 36.3938H83.082V39.1162H77.219V40.9789H82.51V43.558H77.219V47.7132H74.0731V36.3938ZM87.5149 36.3938H90.6609V44.9908H96.0948V47.7132H87.5149V36.3938ZM104.246 36.2505H107.392L112.254 47.7132H108.822L107.964 45.7072H103.531L102.673 47.7132H99.3837L104.246 36.2505ZM107.106 43.2714L105.819 40.1192L104.532 43.2714H107.106ZM116.257 36.3938H121.548C122.223 36.3389 122.903 36.4252 123.543 36.6472C124.183 36.8692 124.77 37.222 125.266 37.6833C125.676 38.126 125.973 38.661 126.133 39.2431C126.293 39.8251 126.31 40.4372 126.184 41.0275C126.058 41.6178 125.792 42.169 125.408 42.6344C125.024 43.0998 124.534 43.4657 123.979 43.7013L126.696 47.7132H123.121L120.833 44.2744H119.403V47.7132H116.257V36.3938ZM121.405 41.8386C122.406 41.8386 123.121 41.2654 123.121 40.549C123.121 39.6893 122.406 39.2595 121.405 39.2595H119.403V41.9819H121.405V41.8386ZM130.7 36.3938H139.852V38.9729H133.846V40.6923H139.28V43.2714H133.846V44.9908H139.995V47.7132H130.7V36.3938ZM8.72297 43.4147C8.5073 43.9211 8.14893 44.3534 7.69176 44.6588C7.23458 44.9642 6.69844 45.1294 6.14901 45.1341C5.37792 45.0964 4.65085 44.7629 4.11844 44.2028C3.58602 43.6426 3.28905 42.8987 3.28905 42.1251C3.28905 41.3516 3.58602 40.6077 4.11844 40.0475C4.65085 39.4874 5.37792 39.1539 6.14901 39.1162C6.73381 39.1274 7.30256 39.3098 7.78529 39.6407C8.26802 39.9716 8.64365 40.4368 8.86597 40.9789H12.1549C11.8736 39.6064 11.1158 38.3782 10.0162 37.5125C8.91667 36.6468 7.54647 36.1997 6.14901 36.2505C5.35855 36.2248 4.57088 36.357 3.83198 36.6395C3.09307 36.9221 2.41772 37.3492 1.84533 37.8961C1.27294 38.4429 0.814978 39.0985 0.498166 39.8246C0.181353 40.5507 0.0120356 41.3328 9.2099e-05 42.1251C-0.00430958 42.91 0.149108 43.6877 0.451191 44.4119C0.753275 45.136 1.19784 45.7918 1.75835 46.3401C2.31887 46.8883 2.98385 47.3178 3.71363 47.603C4.44342 47.8881 5.22305 48.0231 6.00601 47.9998C7.3723 48.009 8.70306 47.5639 9.78987 46.7342C10.8767 45.9045 11.6582 44.7371 12.0119 43.4147H8.72297Z" fill="#FAFAFA"/>
</g>
<defs>
<clipPath id="clip0_93_902">
<rect width="145" height="48" fill="white"/>
</clipPath>
</defs>
</svg>
