<svg width="120" height="48" viewBox="0 0 120 48" fill="none" xmlns="http://www.w3.org/2000/svg">
<path d="M67.1626 1.36963V28.6954C67.1626 34.0605 68.4911 36.509 74.2814 36.509C75.6528 36.509 77.5372 36.1573 78.9598 35.8537L78.0447 30.3775C77.0819 30.5799 76.2401 30.5555 75.6309 30.5705C73.0986 30.6325 73.3174 29.8031 73.3174 27.4237V17.1377H78.1373V12.5795H73.3174V1.36963H67.1626ZM87.3295 1.36963L81.1747 1.37051L81.1756 6.01462V36.5092H90.3668V31.8498H87.3295L87.3295 1.36963ZM11.9195 1.36978C5.57116 1.36978 4.48767 3.52275 4.48767 8.48385V12.5797L1.36328 13.0917V17.1377H4.48767V31.8498H1.36343V36.5098L13.7345 36.5085V31.85H10.6426V17.1377H15.2865V12.5795H10.6426V9.0351C10.6426 6.85728 11.2081 6.6349 13.4446 6.6349C14.0537 6.6349 14.5318 6.66196 15.4955 6.8141L16.3388 1.82702C14.9159 1.57155 13.2906 1.36978 11.9195 1.36978ZM24.8346 7.82641V9.38424H25.5854V11.5024H25.6281C19.7415 12.5824 15.2804 17.7195 15.2804 23.8984C15.2804 30.8618 20.9447 36.5068 27.932 36.5068C30.3167 36.5068 32.5468 35.8484 34.4507 34.7053L35.5594 36.5092H42.0605V30.3775H40.5895L40.5854 11.29H34.4308V13.0801C33.1631 12.3222 31.7511 11.7802 30.2461 11.5024H30.2809V9.38424H31.0318V7.82641H24.8346ZM54.3843 11.2502C48.6062 11.2502 45.1366 13.2784 45.1366 18.4483C45.1366 23.9103 49.4185 25.746 54.8139 26.6647C57.6777 27.2435 58.554 27.8236 58.554 29.0314C58.554 29.9018 58.0597 31.5387 55.0045 31.5387C53.9066 31.5387 51.8037 31.5774 49.798 31.1913L49.8007 30.3775H45.14V34.9581C48.0025 35.682 51.754 36.5092 55.6204 36.5092C61.3984 36.5092 64.1435 33.763 64.1435 28.4474C64.1435 22.8424 59.5883 21.7837 55.0526 20.7689C51.9496 20.0927 51.5521 19.4651 51.5521 18.3042C51.5521 17.4837 51.9014 15.97 54.7656 15.97C55.7686 15.97 57.6177 15.9748 59.4797 16.3132V17.1293H64.1392V12.5795C61.2752 11.8552 58.2988 11.2502 54.3843 11.2502ZM105.944 12.5795V17.1334H108.972L104.503 28.0907L100.034 17.1334H103.068V12.5797H90.3668V17.1334H93.4011L101.29 36.4782C100.376 39.261 97.4567 40.8594 94.8683 40.8594C94.3096 40.8594 93.2447 40.7596 92.4318 40.6081L91.8751 46.1752C93.142 46.4786 94.9689 46.6302 96.3413 46.6302C101.923 46.6302 105.588 41.5835 107.819 36.2215L115.604 17.1333H118.638V12.5795L105.944 12.5795ZM28.3006 17.4052C31.5405 17.5777 34.1504 20.1104 34.4324 23.3094V23.5201H33.6935V24.255H34.4325V24.4562C34.152 27.6567 31.5416 30.1909 28.3006 30.3635V29.6425H27.5633V30.3616C24.26 30.1698 21.6177 27.5247 21.4454 24.2274H22.1783V23.4925H21.4492C21.6451 20.218 24.2764 17.5983 27.5633 17.4074V18.13H28.3006V17.4052ZM30.694 20.6887L28.3152 22.7544C28.1952 22.7116 28.0668 22.687 27.9326 22.687C27.2907 22.687 26.7711 23.2202 26.7711 23.8771C26.7711 24.5347 27.2907 25.0677 27.9326 25.0677C28.5742 25.0677 29.095 24.5347 29.095 23.8771C29.095 23.7523 29.076 23.6321 29.0412 23.5191L31.1622 21.1556L30.694 20.6887ZM116.279 31.8749C114.986 31.8749 113.944 32.8995 113.944 34.1888C113.944 35.4776 114.986 36.502 116.279 36.502C117.572 36.502 118.62 35.4776 118.62 34.1888C118.62 32.8995 117.573 31.8749 116.279 31.8749ZM116.279 32.265C117.354 32.265 118.229 33.1175 118.229 34.1888C118.229 35.2594 117.354 36.1383 116.279 36.1383C115.205 36.1383 114.335 35.2593 114.335 34.1888C114.335 33.1176 115.205 32.265 116.279 32.265ZM115.39 33.0513V35.3253H115.914V34.6379H116.239L116.71 35.3253H117.353L116.783 34.5452C117.075 34.4595 117.261 34.208 117.261 33.8384C117.261 33.3356 116.909 33.0513 116.345 33.0513H115.39ZM115.914 33.5075H116.345C116.571 33.5075 116.73 33.6006 116.73 33.8386C116.73 34.0893 116.571 34.1817 116.332 34.1817H115.914V33.5075Z" fill="#FAFAFA"/>
</svg>
