<svg width="375" height="241" viewBox="0 0 375 241" fill="none" xmlns="http://www.w3.org/2000/svg">
<rect x="1" y="1" width="373" height="239" rx="7" stroke="white" stroke-opacity="0.1" stroke-width="2"/>
<rect x="2" y="2" width="371" height="237" rx="6" fill="#171717"/>
<rect x="3" y="3" width="369" height="235" rx="5" stroke="white" stroke-opacity="0.1" stroke-width="2"/>
<rect x="3" y="3" width="369" height="235" rx="5" stroke="white" stroke-opacity="0.1" stroke-width="2"/>
<path d="M2 31H373V233C373 236.314 370.314 239 367 239H8.00001C4.6863 239 2 236.314 2 233V31Z" fill="#111111"/>
<path d="M372 32V233C372 235.761 369.761 238 367 238H8C5.23858 238 3 235.761 3 233V32H372Z" stroke="white" stroke-opacity="0.1" stroke-width="2"/>
<path d="M372 32V233C372 235.761 369.761 238 367 238H8C5.23858 238 3 235.761 3 233V32H372Z" stroke="white" stroke-opacity="0.1" stroke-width="2"/>
<path d="M285 81.9998L285 107L19 107L19 81.9997L285 81.9998Z" fill="white" fill-opacity="0.1"/>
<path d="M98 186L98 193L19 193L19 186L98 186Z" fill="white" fill-opacity="0.1"/>
<path d="M190 186L190 193L111 193L111 186L190 186Z" fill="white" fill-opacity="0.1"/>
<path d="M283 186L283 193L204 193L204 186L283 186Z" fill="white" fill-opacity="0.1"/>
<path d="M98 202L98 209L19 209L19 202L98 202Z" fill="white" fill-opacity="0.1"/>
<path d="M190 202L190 209L111 209L111 202L190 202Z" fill="white" fill-opacity="0.1"/>
<path d="M283 202L283 209L204 209L204 202L283 202Z" fill="white" fill-opacity="0.1"/>
<path d="M332 81.9998C333.657 81.9998 335 83.3429 335 84.9998C335 86.6566 333.657 87.9998 332 87.9998L302 87.9998C300.343 87.9998 299 86.6566 299 84.9998C299 83.3429 300.343 81.9998 302 81.9998L332 81.9998Z" fill="white" fill-opacity="0.1"/>
<path d="M70 15.9998C71.1046 15.9998 72 16.8952 72 17.9998C72 19.1043 71.1046 19.9998 70 19.9998L48 19.9998C46.8954 19.9998 46 19.1043 46 17.9998C46 16.8952 46.8954 15.9998 48 15.9998L70 15.9998Z" fill="white" fill-opacity="0.1"/>
<path d="M105 15.9998C106.105 15.9998 107 16.8952 107 17.9998C107 19.1043 106.105 19.9998 105 19.9998L83 19.9998C81.8954 19.9998 81 19.1043 81 17.9998C81 16.8952 81.8954 15.9998 83 15.9998L105 15.9998Z" fill="white" fill-opacity="0.1"/>
<path d="M141 15.9998C142.105 15.9998 143 16.8952 143 17.9998C143 19.1043 142.105 19.9998 141 19.9998L119 19.9998C117.895 19.9998 117 19.1043 117 17.9998C117 16.8952 117.895 15.9998 119 15.9998L141 15.9998Z" fill="white" fill-opacity="0.1"/>
<path d="M177 15.9998C178.105 15.9998 179 16.8952 179 17.9998C179 19.1043 178.105 19.9998 177 19.9998L155 19.9998C153.895 19.9998 153 19.1043 153 17.9998C153 16.8952 153.895 15.9998 155 15.9998L177 15.9998Z" fill="white" fill-opacity="0.1"/>
<path d="M213 15.9998C214.105 15.9998 215 16.8952 215 17.9998C215 19.1043 214.105 19.9998 213 19.9998L191 19.9998C189.895 19.9998 189 19.1043 189 17.9998C189 16.8952 189.895 15.9998 191 15.9998L213 15.9998Z" fill="white" fill-opacity="0.1"/>
<path d="M361.5 12.9998C363.985 12.9998 366 15.0145 366 17.4998C366 19.985 363.985 21.9998 361.5 21.9998L349.5 21.9998C347.015 21.9998 345 19.985 345 17.4998C345 15.0145 347.015 12.9998 349.5 12.9998L361.5 12.9998Z" fill="white" fill-opacity="0.1"/>
<path d="M329 93.9998C332.314 93.9998 335 96.686 335 99.9998L335 192C335 195.313 332.314 198 329 198L305 198C301.686 198 299 195.313 299 192L299 99.9998C299 96.686 301.686 93.9998 305 93.9998L329 93.9998Z" fill="white" fill-opacity="0.1"/>
<path d="M140 45.9998L140 64.9998L19 64.9998L19 45.9998L140 45.9998Z" fill="white" fill-opacity="0.1"/>
<path d="M92 118C95.3137 118 98 120.686 98 124L98 171C98 174.313 95.3137 177 92 177L25 177C21.6863 177 19 174.313 19 171L19 124C19 120.686 21.6863 118 25 118L92 118Z" fill="white" fill-opacity="0.1"/>
<path d="M184 118C187.314 118 190 120.686 190 124L190 171C190 174.313 187.314 177 184 177L117 177C113.686 177 111 174.313 111 171L111 124C111 120.686 113.686 118 117 118L184 118Z" fill="white" fill-opacity="0.1"/>
<path d="M277 118C280.314 118 283 120.686 283 124L283 171C283 174.313 280.314 177 277 177L210 177C206.686 177 204 174.313 204 171L204 124C204 120.686 206.686 118 210 118L277 118Z" fill="white" fill-opacity="0.1"/>
<circle cx="364" cy="13" r="3" fill="#525252"/>
<circle cx="27" cy="18" r="8" fill="#525252"/>
<rect x="39" y="10" width="180" height="15" rx="2" fill="#7C3AED" fill-opacity="0.2"/>
<rect x="342" y="8" width="27" height="19" rx="2" fill="#7C3AED" fill-opacity="0.2"/>
<rect x="15" y="113" width="87" height="104" rx="2" fill="#7C3AED" fill-opacity="0.2"/>
<rect x="107" y="113" width="87" height="104" rx="2" fill="#7C3AED" fill-opacity="0.2"/>
<rect x="199" y="113" width="87" height="104" rx="2" fill="#7C3AED" fill-opacity="0.2"/>
<rect x="296" y="77" width="43" height="128" rx="2" fill="#7C3AED" fill-opacity="0.2"/>
</svg>
