<svg width="105" height="24" viewBox="0 0 105 24" fill="none" xmlns="http://www.w3.org/2000/svg">
<path d="M52.3812 6C48.281 6 45.3247 8.7 45.3247 12.75C45.3247 16.8 48.6524 19.5 52.7525 19.5C55.2297 19.5 57.4135 18.51 58.7654 16.8412L55.9242 15.1838C55.174 16.0125 54.0339 16.4963 52.7525 16.4963C50.9736 16.4963 49.462 15.5588 48.9012 14.0588H59.3076C59.3893 13.6388 59.4376 13.2038 59.4376 12.7463C59.4376 8.7 56.4813 6 52.3812 6ZM48.8678 11.4375C49.332 9.94125 50.6022 9 52.3774 9C54.1564 9 55.4266 9.94125 55.8871 11.4375H48.8678ZM92.3727 6C88.2725 6 85.3162 8.7 85.3162 12.75C85.3162 16.8 88.6439 19.5 92.7441 19.5C95.2213 19.5 97.405 18.51 98.7569 16.8412L95.9157 15.1838C95.1655 16.0125 94.0254 16.4963 92.7441 16.4963C90.9651 16.4963 89.4535 15.5588 88.8927 14.0588H99.2991C99.3808 13.6388 99.4291 13.2038 99.4291 12.7463C99.4291 8.7 96.4728 6 92.3727 6ZM88.863 11.4375C89.3273 9.94125 90.5974 9 92.3727 9C94.1516 9 95.4218 9.94125 95.8823 11.4375H88.863ZM74.3676 12.75C74.3676 15 75.8234 16.5 78.0815 16.5C79.6116 16.5 80.7592 15.7988 81.3497 14.655L84.202 16.3162C83.021 18.3037 80.8075 19.5 78.0815 19.5C73.9776 19.5 71.025 16.8 71.025 12.75C71.025 8.7 73.9813 6 78.0815 6C80.8075 6 83.0173 7.19625 84.202 9.18375L81.3497 10.845C80.7592 9.70125 79.6116 9 78.0815 9C75.8271 9 74.3676 10.5 74.3676 12.75ZM105 1.875V19.125H101.657V1.875H105ZM13.7229 0L27.4459 24H0L13.7229 0ZM48.0322 1.875L37.7409 19.875L27.4496 1.875H31.3084L37.7409 13.125L44.1734 1.875H48.0322ZM69.9109 6.375V10.0087C69.5395 9.9 69.1458 9.825 68.7224 9.825C66.5646 9.825 65.0085 11.325 65.0085 13.575V19.125H61.666V6.375H65.0085V9.825C65.0085 7.92 67.2034 6.375 69.9109 6.375Z" fill="#A3A3A3"/>
</svg>
