<svg width="118" height="48" viewBox="0 0 118 48" fill="none" xmlns="http://www.w3.org/2000/svg">
<g clip-path="url(#clip0_93_934)">
<path d="M24.4148 46.9342C14.5108 43.9288 7.3128 34.801 7.3128 23.9995C7.3128 13.0834 14.6644 3.8798 24.7187 0.951824C25.7484 0.646759 25.4816 -0.000488281 24.224 -0.000488281C10.8544 -0.000488281 0 10.7639 0 23.9995C0 37.2351 10.8544 47.9995 24.224 47.9995C25.4816 47.9995 25.5576 47.2764 24.4148 46.9342Z" fill="#FAFAFA"/>
<path d="M11.9211 29.5908C11.8451 28.9436 11.8063 28.2979 11.8063 27.6507C11.8063 17.1155 20.3395 8.59627 30.8901 8.59627C40.8684 8.59627 43.8394 13.0463 44.2209 12.7413C44.6395 12.4378 40.6017 3.61355 28.9083 3.61355C18.3578 3.61355 9.82617 12.1328 9.82617 22.668C9.82617 25.102 10.2836 27.4231 11.1209 29.5521C11.4636 30.4657 11.9971 30.4657 11.9211 29.5908Z" fill="#FAFAFA"/>
<path d="M19.9186 15.8603C24.8698 13.6926 31.1174 13.6167 37.2485 15.7845C41.3624 17.2291 43.7628 19.2838 43.9536 19.1692C44.2962 19.0175 41.5531 14.7192 36.6391 12.8549C30.6971 10.6113 24.2992 11.7912 19.6519 15.4423C19.1185 15.8603 19.3092 16.1267 19.9186 15.8603Z" fill="#FAFAFA"/>
<path d="M118 24.8368C118 26.2055 116.857 27.3467 115.486 27.3467C114.114 27.3467 112.973 26.2443 112.973 24.8368C112.973 23.468 114.077 22.3268 115.486 22.3268C116.896 22.3268 118 23.4293 118 24.8368Z" fill="#FAFAFA"/>
<path d="M36.1839 38.8711L36.4878 42.2188H41.7833L39.9923 22.7834H32.1089L22.1289 42.2188H27.5375L29.2138 38.8711H36.1839ZM35.9172 35.1055H31.0791L35.2318 26.7008H35.269L35.9172 35.1055Z" fill="#FAFAFA"/>
<path d="M49.1327 33.7367H49.9328L53.704 28.6022H58.6164L53.3984 35.1442L56.5991 42.2188H51.3796L49.2846 36.7033H48.5233L47.3433 42.2188H42.8867L46.999 22.7834H51.4555L49.1327 33.7367Z" fill="#FAFAFA"/>
<mask id="mask0_93_934" style="mask-type:luminance" maskUnits="userSpaceOnUse" x="-814" y="-62" width="991" height="1280">
<path d="M-813.189 1217.02H176.075V-61.3409H-813.189V1217.02Z" fill="white"/>
</mask>
<g mask="url(#mask0_93_934)">
<path d="M65.5892 42.2177H70.0457L71.8351 33.7357C72.826 29.058 71.0366 28.4882 66.4653 28.4882C63.2663 28.4882 60.1805 28.4495 59.3044 32.6704H63.761C64.0277 31.4533 64.789 31.1886 65.8947 31.1886C67.836 31.1886 67.7601 31.986 67.4933 33.2417L67.0359 35.4095H66.8468C66.6932 33.8503 64.7131 33.889 63.4555 33.889C60.2193 33.889 58.3136 34.9156 57.6282 38.1857C56.9056 41.6463 58.5431 42.4082 61.6661 42.4082C63.2275 42.4082 65.3225 42.1031 66.0466 40.2405H66.1986L65.5892 42.2177ZM64.3316 36.5894C65.7799 36.5894 66.732 36.7024 66.5025 37.8435C66.1986 39.251 65.5892 39.5174 63.7222 39.5174C63.0368 39.5174 61.7808 39.5174 62.0847 38.034C62.3514 36.7782 63.2275 36.5894 64.3316 36.5894Z" fill="#FAFAFA"/>
<path d="M79.0728 28.6017L78.6541 30.5031H78.8448C79.721 28.9052 81.5104 28.45 83.0347 28.45C84.9388 28.45 86.843 28.7922 86.5763 31.1117H86.767C87.4136 29.1715 89.3954 28.45 91.1088 28.45C94.2706 28.45 95.6041 29.7429 94.9172 32.9001L92.937 42.2183H88.4805L90.1567 34.3447C90.3846 32.9372 90.6142 31.8719 88.8991 31.8719C87.1469 31.8719 86.5763 33.0131 86.2708 34.4964L84.6333 42.2183H80.1768L81.929 33.9638C82.1586 32.7096 82.2345 31.8719 80.673 31.8719C78.8448 31.8719 78.2726 32.8613 77.9299 34.4964L76.2925 42.2183H71.8359L74.731 28.6017H79.0728Z" fill="#FAFAFA"/>
<path d="M103.184 42.2177H107.64L109.469 33.7357C110.459 29.058 108.668 28.4882 104.099 28.4882C100.898 28.4882 97.8124 28.4495 96.9379 32.6704H101.394C101.66 31.4533 102.422 31.1886 103.527 31.1886C105.469 31.1886 105.394 31.986 105.127 33.2417L104.669 35.4095H104.479C104.327 33.8503 102.347 33.889 101.089 33.889C97.8512 33.889 95.947 34.9156 95.2616 38.1857C94.5375 41.6463 96.1749 42.4082 99.2979 42.4082C100.861 42.4082 102.956 42.1031 103.678 40.2405H103.832L103.184 42.2177ZM101.965 36.5894C103.412 36.5894 104.364 36.7024 104.136 37.8435C103.832 39.251 103.223 39.5174 101.356 39.5174C100.67 39.5174 99.4127 39.5174 99.7182 38.034C99.9849 36.7782 100.861 36.5894 101.965 36.5894Z" fill="#FAFAFA"/>
</g>
<path d="M114.113 42.2178H109.656L112.513 28.6013H117.008L114.113 42.2178Z" fill="#FAFAFA"/>
</g>
<defs>
<clipPath id="clip0_93_934">
<rect width="118" height="48" fill="white"/>
</clipPath>
</defs>
</svg>
