<svg width="81" height="48" viewBox="0 0 81 48" fill="none" xmlns="http://www.w3.org/2000/svg">
<g clip-path="url(#clip0_93_959)">
<path d="M23.022 17.512C23.022 18.4878 23.1285 19.2791 23.3151 19.8593C23.5282 20.4395 23.7947 21.0725 24.1677 21.7582C24.3009 21.9692 24.3542 22.1801 24.3542 22.3648C24.3542 22.6285 24.1943 22.8922 23.8479 23.156L22.1693 24.2637C21.9295 24.4219 21.6897 24.501 21.4766 24.501C21.2101 24.501 20.9437 24.3692 20.6772 24.1318C20.3042 23.7362 19.9845 23.3142 19.718 22.8922C19.4516 22.4439 19.1851 21.9428 18.892 21.3362C16.8137 23.7626 14.2025 24.9758 11.0585 24.9758C8.82031 24.9758 7.03512 24.3428 5.72952 23.0769C4.42393 21.8109 3.75781 20.123 3.75781 18.0131C3.75781 15.7714 4.55715 13.9516 6.18248 12.5801C7.80781 11.2087 9.96604 10.523 12.7104 10.523C13.6164 10.523 14.5489 10.6021 15.5348 10.734C16.5206 10.8659 17.5331 11.0769 18.5989 11.3142V9.38894C18.5989 7.38454 18.1726 5.98674 17.3466 5.16916C16.494 4.35158 15.0552 3.95597 13.0035 3.95597C12.071 3.95597 11.1118 4.06147 10.1259 4.29883C9.14005 4.53619 8.18084 4.8263 7.24827 5.19553C6.82196 5.38015 6.50222 5.48564 6.31571 5.53839C6.12919 5.59114 5.99597 5.61751 5.88939 5.61751C5.51637 5.61751 5.32985 5.35378 5.32985 4.79993V3.50762C5.32985 3.08564 5.38314 2.76916 5.51637 2.58454C5.64959 2.39993 5.88939 2.21531 6.26242 2.0307C7.19498 1.55597 8.31406 1.16037 9.61965 0.843885C10.9252 0.501028 12.3108 0.342786 13.7762 0.342786C16.947 0.342786 19.265 1.05487 20.7572 2.47905C22.2226 3.90323 22.9687 6.06586 22.9687 8.96696V17.512H23.022ZM12.2042 21.5208C13.0835 21.5208 13.9894 21.3626 14.9486 21.0461C15.9078 20.7296 16.7604 20.1494 17.4799 19.3582C17.9062 18.8571 18.2259 18.3032 18.3858 17.6703C18.5456 17.0373 18.6522 16.2725 18.6522 15.3758V14.2681C17.8795 14.0834 17.0535 13.9252 16.2009 13.8197C15.3483 13.7142 14.5223 13.6615 13.6963 13.6615C11.9111 13.6615 10.6055 14.0043 9.72623 14.7164C8.84696 15.4285 8.42064 16.4307 8.42064 17.7494C8.42064 18.9889 8.74038 19.912 9.4065 20.545C10.046 21.2043 10.9785 21.5208 12.2042 21.5208ZM33.5999 24.3692C33.1203 24.3692 32.8006 24.29 32.5874 24.1054C32.3743 23.9472 32.1877 23.5779 32.0279 23.0769L25.7664 2.69004C25.6065 2.16257 25.5266 1.81971 25.5266 1.63509C25.5266 1.21312 25.7397 0.975753 26.166 0.975753H28.7772C29.2835 0.975753 29.6299 1.05487 29.8164 1.23949C30.0295 1.39773 30.1894 1.76696 30.3493 2.26806L34.8256 19.7274L38.9822 2.26806C39.1154 1.74059 39.2752 1.39773 39.4884 1.23949C39.7016 1.08125 40.0746 0.975753 40.5542 0.975753H42.6858C43.192 0.975753 43.5384 1.05487 43.7516 1.23949C43.9647 1.39773 44.1512 1.76696 44.2578 2.26806L48.4677 19.9384L53.0772 2.26806C53.2371 1.74059 53.4236 1.39773 53.6101 1.23949C53.8233 1.08125 54.1697 0.975753 54.6493 0.975753H57.1272C57.5535 0.975753 57.7933 1.18674 57.7933 1.63509C57.7933 1.76696 57.7667 1.89883 57.74 2.05707C57.7134 2.21531 57.6601 2.4263 57.5535 2.71641L51.1322 23.1032C50.9723 23.6307 50.7858 23.9736 50.5726 24.1318C50.3595 24.29 50.0131 24.3955 49.5601 24.3955H47.2687C46.7624 24.3955 46.416 24.3164 46.2029 24.1318C45.9897 23.9472 45.8032 23.6043 45.6966 23.0769L41.5667 6.06586L37.4634 23.0505C37.3302 23.578 37.1703 23.9208 36.9572 24.1054C36.744 24.29 36.371 24.3692 35.8914 24.3692H33.5999ZM67.8384 25.0812C66.4529 25.0812 65.0673 24.923 63.7351 24.6065C62.4029 24.29 61.3637 23.9472 60.671 23.5516C60.2447 23.3142 59.9516 23.0505 59.845 22.8131C59.7384 22.5758 59.6851 22.312 59.6851 22.0747V20.7296C59.6851 20.1758 59.8983 19.912 60.2979 19.912C60.4578 19.912 60.6177 19.9384 60.7775 19.9911C60.9374 20.0439 61.1772 20.1494 61.4437 20.2549C62.3496 20.6505 63.3354 20.967 64.3746 21.178C65.4404 21.3889 66.4795 21.4944 67.5453 21.4944C69.2239 21.4944 70.5295 21.2043 71.4354 20.6241C72.3414 20.0439 72.821 19.1999 72.821 18.1186C72.821 17.3801 72.5812 16.7736 72.1016 16.2725C71.622 15.7714 70.716 15.323 69.4104 14.901L65.547 13.7142C63.6019 13.1076 62.1631 12.2109 61.2838 11.0241C60.4045 9.86366 59.9516 8.57136 59.9516 7.19993C59.9516 6.09224 60.1914 5.11641 60.671 4.27246C61.1506 3.4285 61.79 2.69004 62.5894 2.10982C63.3887 1.50323 64.2947 1.05487 65.3604 0.738391C66.4262 0.421907 67.5453 0.290039 68.7177 0.290039C69.3039 0.290039 69.9167 0.316413 70.5029 0.395534C71.1157 0.474654 71.6752 0.580149 72.2348 0.685643C72.7677 0.817511 73.2739 0.94938 73.7535 1.10762C74.2331 1.26586 74.6062 1.4241 74.8726 1.58235C75.2456 1.79334 75.5121 2.00432 75.672 2.24169C75.8318 2.45268 75.9118 2.74279 75.9118 3.11202V4.35158C75.9118 4.90542 75.6986 5.19553 75.2989 5.19553C75.0858 5.19553 74.7394 5.09004 74.2864 4.87905C72.7677 4.19334 71.0624 3.85048 69.1706 3.85048C67.6519 3.85048 66.4529 4.08784 65.6269 4.58894C64.8009 5.09004 64.3746 5.85487 64.3746 6.93619C64.3746 7.67465 64.641 8.30762 65.1739 8.80872C65.7068 9.30982 66.6927 9.81092 68.1049 10.2593L71.8884 11.4461C73.8068 12.0527 75.1923 12.8966 76.0183 13.978C76.8443 15.0593 77.244 16.2988 77.244 17.6703C77.244 18.8043 77.0042 19.8329 76.5512 20.7296C76.0716 21.6263 75.4322 22.4175 74.6062 23.0505C73.7802 23.7098 72.7943 24.1845 71.6486 24.5274C70.4496 24.8966 69.1973 25.0812 67.8384 25.0812Z" fill="#FAFAFA"/>
<path fill-rule="evenodd" clip-rule="evenodd" d="M72.8742 37.8989C64.1081 44.3077 51.3719 47.7099 40.4209 47.7099C25.0736 47.7099 11.245 42.0924 0.800225 32.7561C-0.0257619 32.0176 0.720291 31.0154 1.70615 31.5957C13.0035 38.0836 26.9387 42.0132 41.3535 42.0132C51.0788 42.0132 61.7634 40.0088 71.5953 35.8946C73.0608 35.2352 74.3131 36.844 72.8742 37.8989Z" fill="#FAFAFA"/>
<path fill-rule="evenodd" clip-rule="evenodd" d="M76.5242 33.7847C75.4051 32.3606 69.1169 33.099 66.2659 33.4419C65.4133 33.5474 65.2801 32.8089 66.0528 32.2551C71.062 28.7738 79.2952 29.776 80.2544 30.9364C81.2136 32.1232 79.988 40.2727 75.2985 44.176C74.5791 44.7825 73.8863 44.4661 74.2061 43.6749C75.2719 41.0639 77.6432 35.1825 76.5242 33.7847Z" fill="#FAFAFA"/>
</g>
<defs>
<clipPath id="clip0_93_959">
<rect width="81" height="48" fill="white"/>
</clipPath>
</defs>
</svg>
