<svg width="877" height="196" viewBox="0 0 877 196" fill="none" xmlns="http://www.w3.org/2000/svg">
<path d="M5.07599 4.81818H6.60724V12.0369C6.60724 12.6899 6.47798 13.2483 6.21946 13.7124C5.96425 14.1764 5.60464 14.531 5.14062 14.7763C4.67661 15.0182 4.13305 15.1392 3.50994 15.1392C2.93655 15.1392 2.42116 15.0348 1.96378 14.826C1.50971 14.6172 1.15009 14.3139 0.884943 13.9162C0.623106 13.5152 0.492188 13.0279 0.492188 12.4545H2.01847C2.01847 12.7363 2.0831 12.9799 2.21236 13.1854C2.34493 13.3909 2.52557 13.5516 2.75426 13.6676C2.98627 13.7803 3.25142 13.8366 3.54972 13.8366C3.87453 13.8366 4.14962 13.7687 4.375 13.6328C4.60369 13.4936 4.7777 13.2898 4.89702 13.0213C5.01634 12.7528 5.07599 12.4247 5.07599 12.0369V4.81818ZM10.9462 15.169C10.4623 15.169 10.0248 15.0795 9.6337 14.9006C9.2426 14.7183 8.93271 14.4548 8.70401 14.1101C8.47863 13.7654 8.36594 13.3428 8.36594 12.8423C8.36594 12.4115 8.4488 12.0568 8.61452 11.7784C8.78024 11.5 9.00397 11.2796 9.28569 11.1172C9.56741 10.9548 9.88228 10.8321 10.2303 10.7493C10.5783 10.6664 10.9329 10.6035 11.2942 10.5604C11.7516 10.5073 12.1228 10.4643 12.4078 10.4311C12.6929 10.3946 12.9 10.3366 13.0293 10.2571C13.1586 10.1776 13.2232 10.0483 13.2232 9.86932V9.83452C13.2232 9.40033 13.1006 9.06392 12.8553 8.82528C12.6133 8.58665 12.2521 8.46733 11.7715 8.46733C11.271 8.46733 10.8766 8.57836 10.5882 8.80043C10.3032 9.01918 10.106 9.26278 9.99663 9.53125L8.59961 9.21307C8.76533 8.74905 9.00728 8.37453 9.32546 8.08949C9.64696 7.80114 10.0165 7.59233 10.4341 7.46307C10.8517 7.33049 11.2909 7.2642 11.7516 7.2642C12.0565 7.2642 12.3797 7.30066 12.7211 7.37358C13.0658 7.44318 13.3873 7.57244 13.6855 7.76136C13.9872 7.95028 14.2341 8.22041 14.4263 8.57173C14.6185 8.91974 14.7147 9.37216 14.7147 9.92898V15H13.263V13.956H13.2033C13.1072 14.1482 12.963 14.3371 12.7708 14.5227C12.5785 14.7083 12.3316 14.8625 12.03 14.9851C11.7284 15.1077 11.3671 15.169 10.9462 15.169ZM11.2694 13.9759C11.6803 13.9759 12.0317 13.8946 12.3233 13.7322C12.6183 13.5698 12.842 13.3577 12.9945 13.0959C13.1503 12.8307 13.2282 12.5473 13.2282 12.2457V11.2614C13.1751 11.3144 13.0724 11.3641 12.9199 11.4105C12.7708 11.4536 12.6001 11.4917 12.4078 11.5249C12.2156 11.5547 12.0284 11.5829 11.8461 11.6094C11.6638 11.6326 11.5113 11.6525 11.3887 11.669C11.1003 11.7055 10.8368 11.7668 10.5982 11.853C10.3629 11.9392 10.1739 12.0634 10.0314 12.2259C9.89222 12.3849 9.82262 12.5971 9.82262 12.8622C9.82262 13.2301 9.95851 13.5085 10.2303 13.6974C10.5021 13.883 10.8484 13.9759 11.2694 13.9759ZM18.1811 10.4659V15H16.6946V7.36364H18.1214V8.60653H18.2159C18.3916 8.20218 18.6667 7.87737 19.0412 7.6321C19.419 7.38684 19.8946 7.2642 20.468 7.2642C20.9884 7.2642 21.4441 7.37358 21.8352 7.59233C22.2263 7.80777 22.5296 8.12926 22.745 8.55682C22.9605 8.98437 23.0682 9.51302 23.0682 10.1428V15H21.5817V10.3217C21.5817 9.76823 21.4375 9.3357 21.1491 9.02415C20.8608 8.70928 20.4647 8.55185 19.9609 8.55185C19.6162 8.55185 19.3097 8.62642 19.0412 8.77557C18.776 8.92472 18.5656 9.14347 18.4098 9.43182C18.2573 9.71686 18.1811 10.0616 18.1811 10.4659Z" fill="#A3A3A3"/>
<path d="M105.119 15V4.81818H111.433V6.14062H106.655V9.2429H110.98V10.5604H106.655V15H105.119ZM115.933 15.1541C115.181 15.1541 114.533 14.9934 113.989 14.6719C113.449 14.3471 113.031 13.8913 112.736 13.3047C112.445 12.7147 112.299 12.0237 112.299 11.2315C112.299 10.4493 112.445 9.75994 112.736 9.16335C113.031 8.56676 113.442 8.10109 113.969 7.76633C114.5 7.43158 115.119 7.2642 115.829 7.2642C116.26 7.2642 116.677 7.33546 117.081 7.47798C117.486 7.6205 117.849 7.84422 118.17 8.14915C118.492 8.45407 118.745 8.85014 118.931 9.33736C119.117 9.82126 119.209 10.4096 119.209 11.1023V11.6293H113.139V10.5156H117.753C117.753 10.1245 117.673 9.77817 117.514 9.47656C117.355 9.17164 117.131 8.93134 116.843 8.75568C116.558 8.58002 116.223 8.49219 115.839 8.49219C115.421 8.49219 115.056 8.59493 114.745 8.80043C114.437 9.0026 114.198 9.26776 114.029 9.59588C113.863 9.92069 113.78 10.2737 113.78 10.6548V11.5249C113.78 12.0353 113.87 12.4695 114.049 12.8274C114.231 13.1854 114.485 13.4588 114.809 13.6477C115.134 13.8333 115.514 13.9261 115.948 13.9261C116.23 13.9261 116.487 13.8864 116.719 13.8068C116.951 13.724 117.151 13.6013 117.32 13.4389C117.489 13.2765 117.618 13.076 117.708 12.8374L119.115 13.0909C119.002 13.5052 118.8 13.8681 118.508 14.1797C118.22 14.4879 117.857 14.7282 117.42 14.9006C116.985 15.0696 116.49 15.1541 115.933 15.1541ZM120.978 15V4.81818H122.464V8.60156H122.554C122.64 8.44247 122.764 8.25852 122.927 8.04972C123.089 7.84091 123.315 7.65862 123.603 7.50284C123.891 7.34375 124.272 7.2642 124.746 7.2642C125.363 7.2642 125.913 7.41998 126.397 7.73153C126.881 8.04309 127.26 8.49219 127.536 9.07884C127.814 9.66548 127.953 10.3714 127.953 11.1967C127.953 12.022 127.816 12.7296 127.54 13.3196C127.265 13.9062 126.888 14.3587 126.407 14.6768C125.926 14.9917 125.378 15.1491 124.761 15.1491C124.297 15.1491 123.918 15.0713 123.623 14.9155C123.331 14.7597 123.103 14.5774 122.937 14.3686C122.771 14.1598 122.643 13.9742 122.554 13.8118H122.43V15H120.978ZM122.435 11.1818C122.435 11.7187 122.513 12.1894 122.668 12.5938C122.824 12.9981 123.049 13.3146 123.344 13.5433C123.639 13.7687 124.001 13.8814 124.428 13.8814C124.872 13.8814 125.244 13.7637 125.542 13.5284C125.84 13.2898 126.066 12.9666 126.218 12.5589C126.374 12.1513 126.452 11.6922 126.452 11.1818C126.452 10.678 126.375 10.2256 126.223 9.82457C126.074 9.42353 125.848 9.10701 125.547 8.875C125.249 8.64299 124.876 8.52699 124.428 8.52699C123.997 8.52699 123.633 8.63802 123.335 8.86009C123.04 9.08215 122.816 9.39205 122.663 9.78977C122.511 10.1875 122.435 10.6515 122.435 11.1818Z" fill="#A3A3A3"/>
<path d="M209.119 4.81818H210.983L214.224 12.733H214.344L217.585 4.81818H219.45V15H217.988V7.6321H217.893L214.891 14.9851H213.678L210.675 7.62713H210.58V15H209.119V4.81818ZM223.786 15.169C223.302 15.169 222.865 15.0795 222.474 14.9006C222.082 14.7183 221.773 14.4548 221.544 14.1101C221.318 13.7654 221.206 13.3428 221.206 12.8423C221.206 12.4115 221.289 12.0568 221.454 11.7784C221.62 11.5 221.844 11.2796 222.126 11.1172C222.407 10.9548 222.722 10.8321 223.07 10.7493C223.418 10.6664 223.773 10.6035 224.134 10.5604C224.591 10.5073 224.963 10.4643 225.248 10.4311C225.533 10.3946 225.74 10.3366 225.869 10.2571C225.998 10.1776 226.063 10.0483 226.063 9.86932V9.83452C226.063 9.40033 225.94 9.06392 225.695 8.82528C225.453 8.58665 225.092 8.46733 224.611 8.46733C224.111 8.46733 223.716 8.57836 223.428 8.80043C223.143 9.01918 222.946 9.26278 222.836 9.53125L221.439 9.21307C221.605 8.74905 221.847 8.37453 222.165 8.08949C222.487 7.80114 222.856 7.59233 223.274 7.46307C223.692 7.33049 224.131 7.2642 224.591 7.2642C224.896 7.2642 225.22 7.30066 225.561 7.37358C225.906 7.44318 226.227 7.57244 226.525 7.76136C226.827 7.95028 227.074 8.22041 227.266 8.57173C227.458 8.91974 227.555 9.37216 227.555 9.92898V15H226.103V13.956H226.043C225.947 14.1482 225.803 14.3371 225.611 14.5227C225.418 14.7083 225.171 14.8625 224.87 14.9851C224.568 15.1077 224.207 15.169 223.786 15.169ZM224.109 13.9759C224.52 13.9759 224.872 13.8946 225.163 13.7322C225.458 13.5698 225.682 13.3577 225.834 13.0959C225.99 12.8307 226.068 12.5473 226.068 12.2457V11.2614C226.015 11.3144 225.912 11.3641 225.76 11.4105C225.611 11.4536 225.44 11.4917 225.248 11.5249C225.055 11.5547 224.868 11.5829 224.686 11.6094C224.504 11.6326 224.351 11.6525 224.229 11.669C223.94 11.7055 223.677 11.7668 223.438 11.853C223.203 11.9392 223.014 12.0634 222.871 12.2259C222.732 12.3849 222.662 12.5971 222.662 12.8622C222.662 13.2301 222.798 13.5085 223.07 13.6974C223.342 13.883 223.688 13.9759 224.109 13.9759ZM229.534 15V7.36364H230.971V8.5767H231.051C231.19 8.16572 231.435 7.84257 231.787 7.60724C232.141 7.36861 232.542 7.24929 232.99 7.24929C233.083 7.24929 233.192 7.2526 233.318 7.25923C233.447 7.26586 233.548 7.27415 233.621 7.28409V8.70597C233.561 8.68939 233.455 8.67116 233.303 8.65128C233.15 8.62808 232.998 8.61648 232.846 8.61648C232.494 8.61648 232.181 8.69105 231.906 8.8402C231.634 8.98603 231.419 9.18987 231.26 9.4517C231.1 9.71023 231.021 10.0052 231.021 10.3366V15H229.534Z" fill="#A3A3A3"/>
<path d="M314.979 15H313.348L317.012 4.81818H318.787L322.451 15H320.82L317.942 6.66761H317.862L314.979 15ZM315.252 11.0128H320.542V12.3054H315.252V11.0128ZM323.802 17.8636V7.36364H325.254V8.60156H325.378C325.464 8.44247 325.588 8.25852 325.751 8.04972C325.913 7.84091 326.139 7.65862 326.427 7.50284C326.715 7.34375 327.097 7.2642 327.57 7.2642C328.187 7.2642 328.737 7.41998 329.221 7.73153C329.705 8.04309 330.084 8.49219 330.36 9.07884C330.638 9.66548 330.777 10.3714 330.777 11.1967C330.777 12.022 330.64 12.7296 330.365 13.3196C330.089 13.9062 329.712 14.3587 329.231 14.6768C328.75 14.9917 328.202 15.1491 327.585 15.1491C327.121 15.1491 326.742 15.0713 326.447 14.9155C326.155 14.7597 325.927 14.5774 325.761 14.3686C325.595 14.1598 325.468 13.9742 325.378 13.8118H325.289V17.8636H323.802ZM325.259 11.1818C325.259 11.7187 325.337 12.1894 325.492 12.5938C325.648 12.9981 325.874 13.3146 326.169 13.5433C326.463 13.7687 326.825 13.8814 327.252 13.8814C327.696 13.8814 328.068 13.7637 328.366 13.5284C328.664 13.2898 328.89 12.9666 329.042 12.5589C329.198 12.1513 329.276 11.6922 329.276 11.1818C329.276 10.678 329.2 10.2256 329.047 9.82457C328.898 9.42353 328.673 9.10701 328.371 8.875C328.073 8.64299 327.7 8.52699 327.252 8.52699C326.821 8.52699 326.457 8.63802 326.159 8.86009C325.864 9.08215 325.64 9.39205 325.487 9.78977C325.335 10.1875 325.259 10.6515 325.259 11.1818ZM332.443 15V7.36364H333.879V8.5767H333.959C334.098 8.16572 334.343 7.84257 334.695 7.60724C335.049 7.36861 335.45 7.24929 335.898 7.24929C335.991 7.24929 336.1 7.2526 336.226 7.25923C336.355 7.26586 336.456 7.27415 336.529 7.28409V8.70597C336.47 8.68939 336.364 8.67116 336.211 8.65128C336.059 8.62808 335.906 8.61648 335.754 8.61648C335.402 8.61648 335.089 8.69105 334.814 8.8402C334.542 8.98603 334.327 9.18987 334.168 9.4517C334.009 9.71023 333.929 10.0052 333.929 10.3366V15H332.443Z" fill="#A3A3A3"/>
<path d="M417.119 4.81818H418.983L422.224 12.733H422.344L425.585 4.81818H427.45V15H425.988V7.6321H425.893L422.891 14.9851H421.678L418.675 7.62713H418.58V15H417.119V4.81818ZM431.786 15.169C431.302 15.169 430.865 15.0795 430.474 14.9006C430.082 14.7183 429.773 14.4548 429.544 14.1101C429.318 13.7654 429.206 13.3428 429.206 12.8423C429.206 12.4115 429.289 12.0568 429.454 11.7784C429.62 11.5 429.844 11.2796 430.126 11.1172C430.407 10.9548 430.722 10.8321 431.07 10.7493C431.418 10.6664 431.773 10.6035 432.134 10.5604C432.591 10.5073 432.963 10.4643 433.248 10.4311C433.533 10.3946 433.74 10.3366 433.869 10.2571C433.998 10.1776 434.063 10.0483 434.063 9.86932V9.83452C434.063 9.40033 433.94 9.06392 433.695 8.82528C433.453 8.58665 433.092 8.46733 432.611 8.46733C432.111 8.46733 431.716 8.57836 431.428 8.80043C431.143 9.01918 430.946 9.26278 430.836 9.53125L429.439 9.21307C429.605 8.74905 429.847 8.37453 430.165 8.08949C430.487 7.80114 430.856 7.59233 431.274 7.46307C431.692 7.33049 432.131 7.2642 432.591 7.2642C432.896 7.2642 433.22 7.30066 433.561 7.37358C433.906 7.44318 434.227 7.57244 434.525 7.76136C434.827 7.95028 435.074 8.22041 435.266 8.57173C435.458 8.91974 435.555 9.37216 435.555 9.92898V15H434.103V13.956H434.043C433.947 14.1482 433.803 14.3371 433.611 14.5227C433.418 14.7083 433.171 14.8625 432.87 14.9851C432.568 15.1077 432.207 15.169 431.786 15.169ZM432.109 13.9759C432.52 13.9759 432.872 13.8946 433.163 13.7322C433.458 13.5698 433.682 13.3577 433.834 13.0959C433.99 12.8307 434.068 12.5473 434.068 12.2457V11.2614C434.015 11.3144 433.912 11.3641 433.76 11.4105C433.611 11.4536 433.44 11.4917 433.248 11.5249C433.055 11.5547 432.868 11.5829 432.686 11.6094C432.504 11.6326 432.351 11.6525 432.229 11.669C431.94 11.7055 431.677 11.7668 431.438 11.853C431.203 11.9392 431.014 12.0634 430.871 12.2259C430.732 12.3849 430.662 12.5971 430.662 12.8622C430.662 13.2301 430.798 13.5085 431.07 13.6974C431.342 13.883 431.688 13.9759 432.109 13.9759ZM438.201 17.8636C437.979 17.8636 437.776 17.8454 437.594 17.8089C437.412 17.7758 437.276 17.7393 437.186 17.6996L437.544 16.4815C437.816 16.5545 438.058 16.5859 438.27 16.576C438.482 16.5661 438.67 16.4865 438.832 16.3374C438.998 16.1882 439.144 15.9446 439.27 15.6065L439.453 15.0994L436.659 7.36364H438.25L440.184 13.2898H440.264L442.198 7.36364H443.794L440.647 16.0192C440.501 16.4169 440.315 16.7533 440.09 17.0284C439.864 17.3068 439.596 17.5156 439.284 17.6548C438.973 17.794 438.612 17.8636 438.201 17.8636Z" fill="#A3A3A3"/>
<path d="M529.076 4.81818H530.607V12.0369C530.607 12.6899 530.478 13.2483 530.219 13.7124C529.964 14.1764 529.605 14.531 529.141 14.7763C528.677 15.0182 528.133 15.1392 527.51 15.1392C526.937 15.1392 526.421 15.0348 525.964 14.826C525.51 14.6172 525.15 14.3139 524.885 13.9162C524.623 13.5152 524.492 13.0279 524.492 12.4545H526.018C526.018 12.7363 526.083 12.9799 526.212 13.1854C526.345 13.3909 526.526 13.5516 526.754 13.6676C526.986 13.7803 527.251 13.8366 527.55 13.8366C527.875 13.8366 528.15 13.7687 528.375 13.6328C528.604 13.4936 528.778 13.2898 528.897 13.0213C529.016 12.7528 529.076 12.4247 529.076 12.0369V4.81818ZM537.561 11.8331V7.36364H539.053V15H537.591V13.6776H537.512C537.336 14.0852 537.054 14.425 536.666 14.6967C536.282 14.9652 535.803 15.0994 535.23 15.0994C534.739 15.0994 534.305 14.9917 533.927 14.7763C533.552 14.5575 533.258 14.2344 533.042 13.8068C532.83 13.3793 532.724 12.8506 532.724 12.2209V7.36364H534.21V12.0419C534.21 12.5623 534.355 12.9766 534.643 13.2848C534.931 13.593 535.306 13.7472 535.767 13.7472C536.045 13.7472 536.322 13.6776 536.597 13.5384C536.875 13.3991 537.106 13.1887 537.288 12.907C537.473 12.6252 537.565 12.2673 537.561 11.8331ZM542.537 10.4659V15H541.05V7.36364H542.477V8.60653H542.571C542.747 8.20218 543.022 7.87737 543.397 7.6321C543.775 7.38684 544.25 7.2642 544.824 7.2642C545.344 7.2642 545.8 7.37358 546.191 7.59233C546.582 7.80777 546.885 8.12926 547.1 8.55682C547.316 8.98437 547.424 9.51302 547.424 10.1428V15H545.937V10.3217C545.937 9.76823 545.793 9.3357 545.505 9.02415C545.216 8.70928 544.82 8.55185 544.316 8.55185C543.972 8.55185 543.665 8.62642 543.397 8.77557C543.132 8.92472 542.921 9.14347 542.765 9.43182C542.613 9.71686 542.537 10.0616 542.537 10.4659Z" fill="#A3A3A3"/>
<path d="M633.076 4.81818H634.607V12.0369C634.607 12.6899 634.478 13.2483 634.219 13.7124C633.964 14.1764 633.605 14.531 633.141 14.7763C632.677 15.0182 632.133 15.1392 631.51 15.1392C630.937 15.1392 630.421 15.0348 629.964 14.826C629.51 14.6172 629.15 14.3139 628.885 13.9162C628.623 13.5152 628.492 13.0279 628.492 12.4545H630.018C630.018 12.7363 630.083 12.9799 630.212 13.1854C630.345 13.3909 630.526 13.5516 630.754 13.6676C630.986 13.7803 631.251 13.8366 631.55 13.8366C631.875 13.8366 632.15 13.7687 632.375 13.6328C632.604 13.4936 632.778 13.2898 632.897 13.0213C633.016 12.7528 633.076 12.4247 633.076 12.0369V4.81818ZM641.561 11.8331V7.36364H643.053V15H641.591V13.6776H641.512C641.336 14.0852 641.054 14.425 640.666 14.6967C640.282 14.9652 639.803 15.0994 639.23 15.0994C638.739 15.0994 638.305 14.9917 637.927 14.7763C637.552 14.5575 637.258 14.2344 637.042 13.8068C636.83 13.3793 636.724 12.8506 636.724 12.2209V7.36364H638.21V12.0419C638.21 12.5623 638.355 12.9766 638.643 13.2848C638.931 13.593 639.306 13.7472 639.767 13.7472C640.045 13.7472 640.322 13.6776 640.597 13.5384C640.875 13.3991 641.106 13.1887 641.288 12.907C641.473 12.6252 641.565 12.2673 641.561 11.8331ZM646.537 4.81818V15H645.05V4.81818H646.537Z" fill="#A3A3A3"/>
<path d="M728.979 15H727.348L731.012 4.81818H732.787L736.451 15H734.82L731.942 6.66761H731.862L728.979 15ZM729.252 11.0128H734.542V12.3054H729.252V11.0128ZM742.639 11.8331V7.36364H744.131V15H742.669V13.6776H742.59C742.414 14.0852 742.132 14.425 741.744 14.6967C741.36 14.9652 740.881 15.0994 740.308 15.0994C739.817 15.0994 739.383 14.9917 739.005 14.7763C738.631 14.5575 738.336 14.2344 738.12 13.8068C737.908 13.3793 737.802 12.8506 737.802 12.2209V7.36364H739.289V12.0419C739.289 12.5623 739.433 12.9766 739.721 13.2848C740.009 13.593 740.384 13.7472 740.845 13.7472C741.123 13.7472 741.4 13.6776 741.675 13.5384C741.953 13.3991 742.184 13.1887 742.366 12.907C742.552 12.6252 742.643 12.2673 742.639 11.8331ZM749.33 18.0227C748.723 18.0227 748.201 17.9432 747.764 17.7841C747.33 17.625 746.975 17.4145 746.7 17.1527C746.425 16.8909 746.219 16.6042 746.083 16.2926L747.361 15.7656C747.451 15.9115 747.57 16.0656 747.719 16.228C747.872 16.3937 748.077 16.5346 748.336 16.6506C748.597 16.7666 748.934 16.8246 749.345 16.8246C749.908 16.8246 750.374 16.687 750.742 16.4119C751.11 16.1402 751.294 15.706 751.294 15.1094V13.608H751.199C751.11 13.7704 750.98 13.951 750.811 14.1499C750.646 14.3487 750.417 14.5211 750.125 14.6669C749.834 14.8127 749.454 14.8857 748.987 14.8857C748.384 14.8857 747.84 14.7448 747.356 14.4631C746.876 14.178 746.494 13.7588 746.213 13.2053C745.934 12.6484 745.795 11.964 745.795 11.152C745.795 10.34 745.933 9.64394 746.208 9.06392C746.486 8.4839 746.867 8.03977 747.351 7.73153C747.835 7.41998 748.384 7.2642 748.997 7.2642C749.471 7.2642 749.854 7.34375 750.145 7.50284C750.437 7.65862 750.664 7.84091 750.826 8.04972C750.992 8.25852 751.12 8.44247 751.209 8.60156H751.319V7.36364H752.775V15.169C752.775 15.8253 752.623 16.3639 752.318 16.7848C752.013 17.2057 751.6 17.5173 751.08 17.7195C750.563 17.9216 749.98 18.0227 749.33 18.0227ZM749.315 13.6527C749.743 13.6527 750.104 13.5533 750.399 13.3544C750.697 13.1522 750.922 12.8639 751.075 12.4893C751.231 12.1115 751.309 11.6591 751.309 11.1321C751.309 10.6184 751.232 10.166 751.08 9.77486C750.927 9.38376 750.704 9.07884 750.409 8.86009C750.114 8.63802 749.749 8.52699 749.315 8.52699C748.868 8.52699 748.495 8.64299 748.196 8.875C747.898 9.10369 747.673 9.41525 747.52 9.80966C747.371 10.2041 747.297 10.6449 747.297 11.1321C747.297 11.6326 747.373 12.0717 747.525 12.4496C747.678 12.8274 747.903 13.1224 748.201 13.3345C748.503 13.5466 748.874 13.6527 749.315 13.6527Z" fill="#A3A3A3"/>
<path d="M839.672 7.4929C839.619 7.02225 839.4 6.65767 839.016 6.39915C838.631 6.13731 838.147 6.00639 837.564 6.00639C837.146 6.00639 836.785 6.07268 836.48 6.20526C836.175 6.33452 835.938 6.51349 835.769 6.74219C835.603 6.96757 835.521 7.22443 835.521 7.51278C835.521 7.75473 835.577 7.96354 835.69 8.1392C835.806 8.31487 835.956 8.46236 836.142 8.58168C836.331 8.69768 836.533 8.79545 836.749 8.875C836.964 8.95123 837.171 9.0142 837.37 9.06392L838.364 9.32244C838.689 9.40199 839.022 9.50971 839.364 9.6456C839.705 9.78149 840.022 9.96046 840.313 10.1825C840.605 10.4046 840.84 10.6797 841.019 11.0078C841.201 11.3359 841.293 11.7287 841.293 12.1861C841.293 12.7628 841.143 13.2749 840.845 13.7223C840.55 14.1697 840.121 14.5227 839.558 14.7812C838.997 15.0398 838.32 15.169 837.524 15.169C836.762 15.169 836.102 15.0481 835.545 14.8061C834.989 14.5642 834.553 14.2211 834.238 13.777C833.923 13.3295 833.749 12.7992 833.716 12.1861H835.257C835.287 12.554 835.406 12.8606 835.615 13.1058C835.827 13.3478 836.097 13.5284 836.425 13.6477C836.757 13.7637 837.12 13.8217 837.514 13.8217C837.948 13.8217 838.335 13.7538 838.673 13.6179C839.014 13.4787 839.282 13.2865 839.478 13.0412C839.674 12.7926 839.771 12.5026 839.771 12.1712C839.771 11.8696 839.685 11.6226 839.513 11.4304C839.344 11.2382 839.113 11.0791 838.822 10.9531C838.533 10.8272 838.207 10.7161 837.842 10.62L836.639 10.2919C835.824 10.0698 835.178 9.74337 834.7 9.3125C834.226 8.88163 833.989 8.31155 833.989 7.60227C833.989 7.01562 834.148 6.50355 834.467 6.06605C834.785 5.62855 835.216 5.28883 835.759 5.04688C836.303 4.80161 836.916 4.67898 837.599 4.67898C838.288 4.67898 838.896 4.79995 839.423 5.0419C839.954 5.28385 840.371 5.61695 840.676 6.04119C840.981 6.46212 841.14 6.94602 841.153 7.4929H839.672ZM846.3 15.1541C845.548 15.1541 844.9 14.9934 844.356 14.6719C843.816 14.3471 843.398 13.8913 843.104 13.3047C842.812 12.7147 842.666 12.0237 842.666 11.2315C842.666 10.4493 842.812 9.75994 843.104 9.16335C843.398 8.56676 843.809 8.10109 844.336 7.76633C844.867 7.43158 845.487 7.2642 846.196 7.2642C846.627 7.2642 847.044 7.33546 847.449 7.47798C847.853 7.6205 848.216 7.84422 848.537 8.14915C848.859 8.45407 849.113 8.85014 849.298 9.33736C849.484 9.82126 849.577 10.4096 849.577 11.1023V11.6293H843.506V10.5156H848.12C848.12 10.1245 848.04 9.77817 847.881 9.47656C847.722 9.17164 847.498 8.93134 847.21 8.75568C846.925 8.58002 846.59 8.49219 846.206 8.49219C845.788 8.49219 845.424 8.59493 845.112 8.80043C844.804 9.0026 844.565 9.26776 844.396 9.59588C844.23 9.92069 844.148 10.2737 844.148 10.6548V11.5249C844.148 12.0353 844.237 12.4695 844.416 12.8274C844.598 13.1854 844.852 13.4588 845.177 13.6477C845.501 13.8333 845.881 13.9261 846.315 13.9261C846.597 13.9261 846.854 13.8864 847.086 13.8068C847.318 13.724 847.518 13.6013 847.687 13.4389C847.856 13.2765 847.986 13.076 848.075 12.8374L849.482 13.0909C849.369 13.5052 849.167 13.8681 848.876 14.1797C848.587 14.4879 848.224 14.7282 847.787 14.9006C847.353 15.0696 846.857 15.1541 846.3 15.1541ZM851.226 17.8636V7.36364H852.678V8.60156H852.802C852.888 8.44247 853.012 8.25852 853.175 8.04972C853.337 7.84091 853.563 7.65862 853.851 7.50284C854.139 7.34375 854.52 7.2642 854.994 7.2642C855.611 7.2642 856.161 7.41998 856.645 7.73153C857.129 8.04309 857.508 8.49219 857.783 9.07884C858.062 9.66548 858.201 10.3714 858.201 11.1967C858.201 12.022 858.063 12.7296 857.788 13.3196C857.513 13.9062 857.135 14.3587 856.655 14.6768C856.174 14.9917 855.626 15.1491 855.009 15.1491C854.545 15.1491 854.166 15.0713 853.871 14.9155C853.579 14.7597 853.35 14.5774 853.185 14.3686C853.019 14.1598 852.891 13.9742 852.802 13.8118H852.712V17.8636H851.226ZM852.683 11.1818C852.683 11.7187 852.76 12.1894 852.916 12.5938C853.072 12.9981 853.297 13.3146 853.592 13.5433C853.887 13.7687 854.249 13.8814 854.676 13.8814C855.12 13.8814 855.491 13.7637 855.79 13.5284C856.088 13.2898 856.313 12.9666 856.466 12.5589C856.622 12.1513 856.7 11.6922 856.7 11.1818C856.7 10.678 856.623 10.2256 856.471 9.82457C856.322 9.42353 856.096 9.10701 855.795 8.875C855.496 8.64299 855.124 8.52699 854.676 8.52699C854.245 8.52699 853.881 8.63802 853.582 8.86009C853.287 9.08215 853.064 9.39205 852.911 9.78977C852.759 10.1875 852.683 10.6515 852.683 11.1818Z" fill="#A3A3A3"/>
<rect x="0.75" y="26.75" width="14.5" height="14.5" rx="1.25" stroke="#3C3C3C" stroke-width="1.5"/>
<rect x="21.75" y="26.75" width="14.5" height="14.5" rx="1.25" stroke="#3C3C3C" stroke-width="1.5"/>
<rect x="42.75" y="26.75" width="14.5" height="14.5" rx="1.25" stroke="#3C3C3C" stroke-width="1.5"/>
<rect x="63.75" y="26.75" width="14.5" height="14.5" rx="1.25" stroke="#3C3C3C" stroke-width="1.5"/>
<rect x="84.75" y="26.75" width="14.5" height="14.5" rx="1.25" stroke="#3C3C3C" stroke-width="1.5"/>
<rect x="105.75" y="26.75" width="14.5" height="14.5" rx="1.25" stroke="#3C3C3C" stroke-width="1.5"/>
<rect x="126.75" y="26.75" width="14.5" height="14.5" rx="1.25" stroke="#3C3C3C" stroke-width="1.5"/>
<rect x="147.75" y="26.75" width="14.5" height="14.5" rx="1.25" stroke="#3C3C3C" stroke-width="1.5"/>
<rect x="168.75" y="26.75" width="14.5" height="14.5" rx="1.25" stroke="#3C3C3C" stroke-width="1.5"/>
<rect x="189.75" y="26.75" width="14.5" height="14.5" rx="1.25" stroke="#3C3C3C" stroke-width="1.5"/>
<rect x="210.75" y="26.75" width="14.5" height="14.5" rx="1.25" stroke="#3C3C3C" stroke-width="1.5"/>
<rect x="231.75" y="26.75" width="14.5" height="14.5" rx="1.25" stroke="#3C3C3C" stroke-width="1.5"/>
<rect x="252.75" y="26.75" width="14.5" height="14.5" rx="1.25" stroke="#3C3C3C" stroke-width="1.5"/>
<rect x="273.75" y="26.75" width="14.5" height="14.5" rx="1.25" stroke="#3C3C3C" stroke-width="1.5"/>
<rect x="294.75" y="26.75" width="14.5" height="14.5" rx="1.25" stroke="#3C3C3C" stroke-width="1.5"/>
<rect x="315.75" y="26.75" width="14.5" height="14.5" rx="1.25" stroke="#3C3C3C" stroke-width="1.5"/>
<rect x="336.75" y="26.75" width="14.5" height="14.5" rx="1.25" stroke="#3C3C3C" stroke-width="1.5"/>
<rect x="357.75" y="26.75" width="14.5" height="14.5" rx="1.25" stroke="#3C3C3C" stroke-width="1.5"/>
<rect x="378.75" y="26.75" width="14.5" height="14.5" rx="1.25" stroke="#3C3C3C" stroke-width="1.5"/>
<rect x="399.75" y="26.75" width="14.5" height="14.5" rx="1.25" stroke="#3C3C3C" stroke-width="1.5"/>
<rect x="420.75" y="26.75" width="14.5" height="14.5" rx="1.25" stroke="#3C3C3C" stroke-width="1.5"/>
<rect x="441.75" y="26.75" width="14.5" height="14.5" rx="1.25" stroke="#3C3C3C" stroke-width="1.5"/>
<rect x="462.75" y="26.75" width="14.5" height="14.5" rx="1.25" stroke="#3C3C3C" stroke-width="1.5"/>
<rect x="483.75" y="26.75" width="14.5" height="14.5" rx="1.25" stroke="#3C3C3C" stroke-width="1.5"/>
<rect x="504.75" y="26.75" width="14.5" height="14.5" rx="1.25" stroke="#3C3C3C" stroke-width="1.5"/>
<rect x="525.75" y="26.75" width="14.5" height="14.5" rx="1.25" stroke="#3C3C3C" stroke-width="1.5"/>
<rect x="546.75" y="26.75" width="14.5" height="14.5" rx="1.25" stroke="#3C3C3C" stroke-width="1.5"/>
<rect x="567.75" y="26.75" width="14.5" height="14.5" rx="1.25" stroke="#3C3C3C" stroke-width="1.5"/>
<rect x="588.75" y="26.75" width="14.5" height="14.5" rx="1.25" stroke="#3C3C3C" stroke-width="1.5"/>
<rect x="609.75" y="26.75" width="14.5" height="14.5" rx="1.25" stroke="#3C3C3C" stroke-width="1.5"/>
<rect x="630.75" y="26.75" width="14.5" height="14.5" rx="1.25" stroke="#3C3C3C" stroke-width="1.5"/>
<rect x="651.75" y="26.75" width="14.5" height="14.5" rx="1.25" stroke="#3C3C3C" stroke-width="1.5"/>
<rect x="672.75" y="26.75" width="14.5" height="14.5" rx="1.25" stroke="#3C3C3C" stroke-width="1.5"/>
<rect x="693.75" y="26.75" width="14.5" height="14.5" rx="1.25" stroke="#3C3C3C" stroke-width="1.5"/>
<rect x="714.75" y="26.75" width="14.5" height="14.5" rx="1.25" stroke="#3C3C3C" stroke-width="1.5"/>
<rect x="735.75" y="26.75" width="14.5" height="14.5" rx="1.25" stroke="#3C3C3C" stroke-width="1.5"/>
<rect x="756.75" y="26.75" width="14.5" height="14.5" rx="1.25" stroke="#3C3C3C" stroke-width="1.5"/>
<rect x="777.75" y="26.75" width="14.5" height="14.5" rx="1.25" stroke="#3C3C3C" stroke-width="1.5"/>
<rect x="798.75" y="26.75" width="14.5" height="14.5" rx="1.25" stroke="#3C3C3C" stroke-width="1.5"/>
<rect x="819.75" y="26.75" width="14.5" height="14.5" rx="1.25" stroke="#3C3C3C" stroke-width="1.5"/>
<rect x="840.75" y="26.75" width="14.5" height="14.5" rx="1.25" stroke="#3C3C3C" stroke-width="1.5"/>
<rect x="861.75" y="26.75" width="14.5" height="14.5" rx="1.25" stroke="#3C3C3C" stroke-width="1.5"/>
<rect x="0.75" y="48.75" width="14.5" height="14.5" rx="1.25" stroke="#3C3C3C" stroke-width="1.5"/>
<rect x="21.75" y="48.75" width="14.5" height="14.5" rx="1.25" stroke="#3C3C3C" stroke-width="1.5"/>
<rect x="42.75" y="48.75" width="14.5" height="14.5" rx="1.25" stroke="#3C3C3C" stroke-width="1.5"/>
<rect x="63.75" y="48.75" width="14.5" height="14.5" rx="1.25" stroke="#3C3C3C" stroke-width="1.5"/>
<rect x="84.75" y="48.75" width="14.5" height="14.5" rx="1.25" stroke="#3C3C3C" stroke-width="1.5"/>
<rect x="105.75" y="48.75" width="14.5" height="14.5" rx="1.25" stroke="#3C3C3C" stroke-width="1.5"/>
<rect x="126.75" y="48.75" width="14.5" height="14.5" rx="1.25" stroke="#3C3C3C" stroke-width="1.5"/>
<rect x="147.75" y="48.75" width="14.5" height="14.5" rx="1.25" stroke="#3C3C3C" stroke-width="1.5"/>
<rect x="168.75" y="48.75" width="14.5" height="14.5" rx="1.25" stroke="#3C3C3C" stroke-width="1.5"/>
<rect x="189.75" y="48.75" width="14.5" height="14.5" rx="1.25" stroke="#3C3C3C" stroke-width="1.5"/>
<rect x="210.75" y="48.75" width="14.5" height="14.5" rx="1.25" stroke="#3C3C3C" stroke-width="1.5"/>
<rect x="231.75" y="48.75" width="14.5" height="14.5" rx="1.25" stroke="#3C3C3C" stroke-width="1.5"/>
<rect x="252.75" y="48.75" width="14.5" height="14.5" rx="1.25" stroke="#3C3C3C" stroke-width="1.5"/>
<rect x="273.75" y="48.75" width="14.5" height="14.5" rx="1.25" stroke="#3C3C3C" stroke-width="1.5"/>
<rect x="294.75" y="48.75" width="14.5" height="14.5" rx="1.25" stroke="#3C3C3C" stroke-width="1.5"/>
<rect x="315.75" y="48.75" width="14.5" height="14.5" rx="1.25" stroke="#3C3C3C" stroke-width="1.5"/>
<rect x="336.75" y="48.75" width="14.5" height="14.5" rx="1.25" stroke="#3C3C3C" stroke-width="1.5"/>
<rect x="357.75" y="48.75" width="14.5" height="14.5" rx="1.25" stroke="#3C3C3C" stroke-width="1.5"/>
<rect x="378.75" y="48.75" width="14.5" height="14.5" rx="1.25" stroke="#3C3C3C" stroke-width="1.5"/>
<rect x="399.75" y="48.75" width="14.5" height="14.5" rx="1.25" stroke="#3C3C3C" stroke-width="1.5"/>
<rect x="420.75" y="48.75" width="14.5" height="14.5" rx="1.25" stroke="#3C3C3C" stroke-width="1.5"/>
<rect x="441.75" y="48.75" width="14.5" height="14.5" rx="1.25" stroke="#3C3C3C" stroke-width="1.5"/>
<rect x="462.75" y="48.75" width="14.5" height="14.5" rx="1.25" stroke="#3C3C3C" stroke-width="1.5"/>
<rect x="483.75" y="48.75" width="14.5" height="14.5" rx="1.25" stroke="#3C3C3C" stroke-width="1.5"/>
<rect x="504.75" y="48.75" width="14.5" height="14.5" rx="1.25" stroke="#3C3C3C" stroke-width="1.5"/>
<rect x="525.75" y="48.75" width="14.5" height="14.5" rx="1.25" stroke="#3C3C3C" stroke-width="1.5"/>
<rect x="546.75" y="48.75" width="14.5" height="14.5" rx="1.25" stroke="#3C3C3C" stroke-width="1.5"/>
<rect x="567.75" y="48.75" width="14.5" height="14.5" rx="1.25" stroke="#3C3C3C" stroke-width="1.5"/>
<rect x="588.75" y="48.75" width="14.5" height="14.5" rx="1.25" stroke="#3C3C3C" stroke-width="1.5"/>
<rect x="609.75" y="48.75" width="14.5" height="14.5" rx="1.25" stroke="#3C3C3C" stroke-width="1.5"/>
<rect x="630.75" y="48.75" width="14.5" height="14.5" rx="1.25" stroke="#3C3C3C" stroke-width="1.5"/>
<rect x="651.75" y="48.75" width="14.5" height="14.5" rx="1.25" stroke="#3C3C3C" stroke-width="1.5"/>
<rect x="672.75" y="48.75" width="14.5" height="14.5" rx="1.25" stroke="#3C3C3C" stroke-width="1.5"/>
<rect x="693.75" y="48.75" width="14.5" height="14.5" rx="1.25" stroke="#3C3C3C" stroke-width="1.5"/>
<rect x="714.75" y="48.75" width="14.5" height="14.5" rx="1.25" stroke="#3C3C3C" stroke-width="1.5"/>
<rect x="735.75" y="48.75" width="14.5" height="14.5" rx="1.25" stroke="#3C3C3C" stroke-width="1.5"/>
<rect x="756.75" y="48.75" width="14.5" height="14.5" rx="1.25" stroke="#3C3C3C" stroke-width="1.5"/>
<rect x="777.75" y="48.75" width="14.5" height="14.5" rx="1.25" stroke="#3C3C3C" stroke-width="1.5"/>
<rect x="798.75" y="48.75" width="14.5" height="14.5" rx="1.25" stroke="#3C3C3C" stroke-width="1.5"/>
<rect x="819.75" y="48.75" width="14.5" height="14.5" rx="1.25" stroke="#3C3C3C" stroke-width="1.5"/>
<rect x="840.75" y="48.75" width="14.5" height="14.5" rx="1.25" stroke="#3C3C3C" stroke-width="1.5"/>
<rect x="861.75" y="48.75" width="14.5" height="14.5" rx="1.25" stroke="#3C3C3C" stroke-width="1.5"/>
<rect x="0.75" y="158.75" width="14.5" height="14.5" rx="1.25" stroke="#3C3C3C" stroke-width="1.5"/>
<rect x="21.75" y="158.75" width="14.5" height="14.5" rx="1.25" stroke="#3C3C3C" stroke-width="1.5"/>
<rect x="42.75" y="158.75" width="14.5" height="14.5" rx="1.25" stroke="#3C3C3C" stroke-width="1.5"/>
<rect x="63.75" y="158.75" width="14.5" height="14.5" rx="1.25" stroke="#3C3C3C" stroke-width="1.5"/>
<rect x="84" y="158" width="16" height="16" rx="2" fill="#E11D48"/>
<rect x="105.75" y="158.75" width="14.5" height="14.5" rx="1.25" stroke="#3C3C3C" stroke-width="1.5"/>
<rect x="126.75" y="158.75" width="14.5" height="14.5" rx="1.25" stroke="#3C3C3C" stroke-width="1.5"/>
<rect x="147.75" y="158.75" width="14.5" height="14.5" rx="1.25" stroke="#3C3C3C" stroke-width="1.5"/>
<rect x="168.75" y="158.75" width="14.5" height="14.5" rx="1.25" stroke="#3C3C3C" stroke-width="1.5"/>
<rect x="189.75" y="158.75" width="14.5" height="14.5" rx="1.25" stroke="#3C3C3C" stroke-width="1.5"/>
<rect x="210.75" y="158.75" width="14.5" height="14.5" rx="1.25" stroke="#3C3C3C" stroke-width="1.5"/>
<rect x="231.75" y="158.75" width="14.5" height="14.5" rx="1.25" stroke="#3C3C3C" stroke-width="1.5"/>
<rect x="252" y="158" width="16" height="16" rx="2" fill="#E11D48"/>
<rect x="273.75" y="158.75" width="14.5" height="14.5" rx="1.25" stroke="#3C3C3C" stroke-width="1.5"/>
<rect x="294.75" y="158.75" width="14.5" height="14.5" rx="1.25" stroke="#3C3C3C" stroke-width="1.5"/>
<rect x="315.75" y="158.75" width="14.5" height="14.5" rx="1.25" stroke="#3C3C3C" stroke-width="1.5"/>
<rect x="336.75" y="158.75" width="14.5" height="14.5" rx="1.25" stroke="#3C3C3C" stroke-width="1.5"/>
<rect x="357" y="158" width="16" height="16" rx="2" fill="#FECDD3"/>
<rect x="378" y="158" width="16" height="16" rx="2" fill="#9F1239"/>
<rect x="399.75" y="158.75" width="14.5" height="14.5" rx="1.25" stroke="#3C3C3C" stroke-width="1.5"/>
<rect x="420.75" y="158.75" width="14.5" height="14.5" rx="1.25" stroke="#3C3C3C" stroke-width="1.5"/>
<rect x="441.75" y="158.75" width="14.5" height="14.5" rx="1.25" stroke="#3C3C3C" stroke-width="1.5"/>
<rect x="462" y="158" width="16" height="16" rx="2" fill="#E11D48"/>
<rect x="483.75" y="158.75" width="14.5" height="14.5" rx="1.25" stroke="#3C3C3C" stroke-width="1.5"/>
<rect x="504" y="158" width="16" height="16" rx="2" fill="#9F1239"/>
<rect x="525.75" y="158.75" width="14.5" height="14.5" rx="1.25" stroke="#3C3C3C" stroke-width="1.5"/>
<rect x="546" y="158" width="16" height="16" rx="2" fill="#D66172"/>
<rect x="567.75" y="158.75" width="14.5" height="14.5" rx="1.25" stroke="#3C3C3C" stroke-width="1.5"/>
<rect x="588.75" y="158.75" width="14.5" height="14.5" rx="1.25" stroke="#3C3C3C" stroke-width="1.5"/>
<rect x="609.75" y="158.75" width="14.5" height="14.5" rx="1.25" stroke="#3C3C3C" stroke-width="1.5"/>
<rect x="798.75" y="158.75" width="14.5" height="14.5" rx="1.25" stroke="#3C3C3C" stroke-width="1.5"/>
<rect x="840.75" y="158.75" width="14.5" height="14.5" rx="1.25" stroke="#3C3C3C" stroke-width="1.5"/>
<rect x="819.75" y="158.75" width="14.5" height="14.5" rx="1.25" stroke="#3C3C3C" stroke-width="1.5"/>
<rect x="630.75" y="158.75" width="14.5" height="14.5" rx="1.25" stroke="#3C3C3C" stroke-width="1.5"/>
<rect x="651.75" y="158.75" width="14.5" height="14.5" rx="1.25" stroke="#3C3C3C" stroke-width="1.5"/>
<rect x="672" y="158" width="16" height="16" rx="2" fill="#9F1239"/>
<rect x="693.75" y="158.75" width="14.5" height="14.5" rx="1.25" stroke="#3C3C3C" stroke-width="1.5"/>
<rect x="714" y="158" width="16" height="16" rx="2" fill="#E11D48"/>
<rect x="735.75" y="158.75" width="14.5" height="14.5" rx="1.25" stroke="#3C3C3C" stroke-width="1.5"/>
<rect x="756.75" y="158.75" width="14.5" height="14.5" rx="1.25" stroke="#3C3C3C" stroke-width="1.5"/>
<rect x="777.75" y="158.75" width="14.5" height="14.5" rx="1.25" stroke="#3C3C3C" stroke-width="1.5"/>
<rect x="0.75" y="70.75" width="14.5" height="14.5" rx="1.25" stroke="#3C3C3C" stroke-width="1.5"/>
<rect x="21.75" y="70.75" width="14.5" height="14.5" rx="1.25" stroke="#3C3C3C" stroke-width="1.5"/>
<rect x="42" y="70" width="16" height="16" rx="2" fill="#E11D48"/>
<rect x="63.75" y="70.75" width="14.5" height="14.5" rx="1.25" stroke="#3C3C3C" stroke-width="1.5"/>
<rect x="84.75" y="70.75" width="14.5" height="14.5" rx="1.25" stroke="#3C3C3C" stroke-width="1.5"/>
<rect x="105.75" y="70.75" width="14.5" height="14.5" rx="1.25" stroke="#3C3C3C" stroke-width="1.5"/>
<rect x="126.75" y="70.75" width="14.5" height="14.5" rx="1.25" stroke="#3C3C3C" stroke-width="1.5"/>
<rect x="147.75" y="70.75" width="14.5" height="14.5" rx="1.25" stroke="#3C3C3C" stroke-width="1.5"/>
<rect x="168.75" y="70.75" width="14.5" height="14.5" rx="1.25" stroke="#3C3C3C" stroke-width="1.5"/>
<rect x="189.75" y="70.75" width="14.5" height="14.5" rx="1.25" stroke="#3C3C3C" stroke-width="1.5"/>
<rect x="210.75" y="70.75" width="14.5" height="14.5" rx="1.25" stroke="#3C3C3C" stroke-width="1.5"/>
<rect x="231" y="70" width="16" height="16" rx="2" fill="#9F1239"/>
<rect x="252.75" y="70.75" width="14.5" height="14.5" rx="1.25" stroke="#3C3C3C" stroke-width="1.5"/>
<rect x="273.75" y="70.75" width="14.5" height="14.5" rx="1.25" stroke="#3C3C3C" stroke-width="1.5"/>
<rect x="294.75" y="70.75" width="14.5" height="14.5" rx="1.25" stroke="#3C3C3C" stroke-width="1.5"/>
<rect x="315.75" y="70.75" width="14.5" height="14.5" rx="1.25" stroke="#3C3C3C" stroke-width="1.5"/>
<rect x="336.75" y="70.75" width="14.5" height="14.5" rx="1.25" stroke="#3C3C3C" stroke-width="1.5"/>
<rect x="357.75" y="70.75" width="14.5" height="14.5" rx="1.25" stroke="#3C3C3C" stroke-width="1.5"/>
<rect x="378.75" y="70.75" width="14.5" height="14.5" rx="1.25" stroke="#3C3C3C" stroke-width="1.5"/>
<rect x="399.75" y="70.75" width="14.5" height="14.5" rx="1.25" stroke="#3C3C3C" stroke-width="1.5"/>
<rect x="420.75" y="70.75" width="14.5" height="14.5" rx="1.25" stroke="#3C3C3C" stroke-width="1.5"/>
<rect x="441.75" y="70.75" width="14.5" height="14.5" rx="1.25" stroke="#3C3C3C" stroke-width="1.5"/>
<rect x="462.75" y="70.75" width="14.5" height="14.5" rx="1.25" stroke="#3C3C3C" stroke-width="1.5"/>
<rect x="483.75" y="70.75" width="14.5" height="14.5" rx="1.25" stroke="#3C3C3C" stroke-width="1.5"/>
<rect x="504.75" y="70.75" width="14.5" height="14.5" rx="1.25" stroke="#3C3C3C" stroke-width="1.5"/>
<rect x="525.75" y="70.75" width="14.5" height="14.5" rx="1.25" stroke="#3C3C3C" stroke-width="1.5"/>
<rect x="546.75" y="70.75" width="14.5" height="14.5" rx="1.25" stroke="#3C3C3C" stroke-width="1.5"/>
<rect x="567.75" y="70.75" width="14.5" height="14.5" rx="1.25" stroke="#3C3C3C" stroke-width="1.5"/>
<rect x="588.75" y="70.75" width="14.5" height="14.5" rx="1.25" stroke="#3C3C3C" stroke-width="1.5"/>
<rect x="609.75" y="70.75" width="14.5" height="14.5" rx="1.25" stroke="#3C3C3C" stroke-width="1.5"/>
<rect x="630.75" y="70.75" width="14.5" height="14.5" rx="1.25" stroke="#3C3C3C" stroke-width="1.5"/>
<rect x="651" y="70" width="16" height="16" rx="2" fill="#FECDD3"/>
<rect x="672.75" y="70.75" width="14.5" height="14.5" rx="1.25" stroke="#3C3C3C" stroke-width="1.5"/>
<rect x="693.75" y="70.75" width="14.5" height="14.5" rx="1.25" stroke="#3C3C3C" stroke-width="1.5"/>
<rect x="714.75" y="70.75" width="14.5" height="14.5" rx="1.25" stroke="#3C3C3C" stroke-width="1.5"/>
<rect x="735.75" y="70.75" width="14.5" height="14.5" rx="1.25" stroke="#3C3C3C" stroke-width="1.5"/>
<rect x="756.75" y="70.75" width="14.5" height="14.5" rx="1.25" stroke="#3C3C3C" stroke-width="1.5"/>
<rect x="777.75" y="70.75" width="14.5" height="14.5" rx="1.25" stroke="#3C3C3C" stroke-width="1.5"/>
<rect x="798.75" y="70.75" width="14.5" height="14.5" rx="1.25" stroke="#3C3C3C" stroke-width="1.5"/>
<rect x="819.75" y="70.75" width="14.5" height="14.5" rx="1.25" stroke="#3C3C3C" stroke-width="1.5"/>
<rect x="840.75" y="70.75" width="14.5" height="14.5" rx="1.25" stroke="#3C3C3C" stroke-width="1.5"/>
<rect x="861.75" y="70.75" width="14.5" height="14.5" rx="1.25" stroke="#3C3C3C" stroke-width="1.5"/>
<rect x="0.75" y="92.75" width="14.5" height="14.5" rx="1.25" stroke="#3C3C3C" stroke-width="1.5"/>
<rect x="21.75" y="92.75" width="14.5" height="14.5" rx="1.25" stroke="#3C3C3C" stroke-width="1.5"/>
<rect x="42.75" y="92.75" width="14.5" height="14.5" rx="1.25" stroke="#3C3C3C" stroke-width="1.5"/>
<rect x="63" y="92" width="16" height="16" rx="2" fill="#DDD6FE"/>
<rect x="84.75" y="92.75" width="14.5" height="14.5" rx="1.25" stroke="#3C3C3C" stroke-width="1.5"/>
<rect x="105.75" y="92.75" width="14.5" height="14.5" rx="1.25" stroke="#3C3C3C" stroke-width="1.5"/>
<rect x="126" y="92" width="16" height="16" rx="2" fill="#E11D48"/>
<rect x="147.75" y="92.75" width="14.5" height="14.5" rx="1.25" stroke="#3C3C3C" stroke-width="1.5"/>
<rect x="168.75" y="92.75" width="14.5" height="14.5" rx="1.25" stroke="#3C3C3C" stroke-width="1.5"/>
<rect x="189.75" y="92.75" width="14.5" height="14.5" rx="1.25" stroke="#3C3C3C" stroke-width="1.5"/>
<rect x="210.75" y="92.75" width="14.5" height="14.5" rx="1.25" stroke="#3C3C3C" stroke-width="1.5"/>
<rect x="231.75" y="92.75" width="14.5" height="14.5" rx="1.25" stroke="#3C3C3C" stroke-width="1.5"/>
<rect x="252.75" y="92.75" width="14.5" height="14.5" rx="1.25" stroke="#3C3C3C" stroke-width="1.5"/>
<rect x="273.75" y="92.75" width="14.5" height="14.5" rx="1.25" stroke="#3C3C3C" stroke-width="1.5"/>
<rect x="294" y="92" width="16" height="16" rx="2" fill="#D66172"/>
<rect x="315.75" y="92.75" width="14.5" height="14.5" rx="1.25" stroke="#3C3C3C" stroke-width="1.5"/>
<rect x="336.75" y="92.75" width="14.5" height="14.5" rx="1.25" stroke="#3C3C3C" stroke-width="1.5"/>
<rect x="357.75" y="92.75" width="14.5" height="14.5" rx="1.25" stroke="#3C3C3C" stroke-width="1.5"/>
<rect x="378.75" y="92.75" width="14.5" height="14.5" rx="1.25" stroke="#3C3C3C" stroke-width="1.5"/>
<rect x="399.75" y="92.75" width="14.5" height="14.5" rx="1.25" stroke="#3C3C3C" stroke-width="1.5"/>
<rect x="420" y="92" width="16" height="16" rx="2" fill="#991B1B"/>
<rect x="441.75" y="92.75" width="14.5" height="14.5" rx="1.25" stroke="#3C3C3C" stroke-width="1.5"/>
<rect x="462.75" y="92.75" width="14.5" height="14.5" rx="1.25" stroke="#3C3C3C" stroke-width="1.5"/>
<rect x="483.75" y="92.75" width="14.5" height="14.5" rx="1.25" stroke="#3C3C3C" stroke-width="1.5"/>
<rect x="504" y="92" width="16" height="16" rx="2" fill="#E11D48"/>
<rect x="525.75" y="92.75" width="14.5" height="14.5" rx="1.25" stroke="#3C3C3C" stroke-width="1.5"/>
<rect x="546" y="92" width="16" height="16" rx="2" fill="#E11D48"/>
<rect x="567.75" y="92.75" width="14.5" height="14.5" rx="1.25" stroke="#3C3C3C" stroke-width="1.5"/>
<rect x="588" y="92" width="16" height="16" rx="2" fill="#9F1239"/>
<rect x="609.75" y="92.75" width="14.5" height="14.5" rx="1.25" stroke="#3C3C3C" stroke-width="1.5"/>
<rect x="630.75" y="92.75" width="14.5" height="14.5" rx="1.25" stroke="#3C3C3C" stroke-width="1.5"/>
<rect x="651.75" y="92.75" width="14.5" height="14.5" rx="1.25" stroke="#3C3C3C" stroke-width="1.5"/>
<rect x="672.75" y="92.75" width="14.5" height="14.5" rx="1.25" stroke="#3C3C3C" stroke-width="1.5"/>
<rect x="693.75" y="92.75" width="14.5" height="14.5" rx="1.25" stroke="#3C3C3C" stroke-width="1.5"/>
<rect x="714" y="92" width="16" height="16" rx="2" fill="#9F1239"/>
<rect x="735.75" y="92.75" width="14.5" height="14.5" rx="1.25" stroke="#3C3C3C" stroke-width="1.5"/>
<rect x="756" y="92" width="16" height="16" rx="2" fill="#D66172"/>
<rect x="777.75" y="92.75" width="14.5" height="14.5" rx="1.25" stroke="#3C3C3C" stroke-width="1.5"/>
<rect x="798.75" y="92.75" width="14.5" height="14.5" rx="1.25" stroke="#3C3C3C" stroke-width="1.5"/>
<rect x="819.75" y="92.75" width="14.5" height="14.5" rx="1.25" stroke="#3C3C3C" stroke-width="1.5"/>
<rect x="840.75" y="92.75" width="14.5" height="14.5" rx="1.25" stroke="#3C3C3C" stroke-width="1.5"/>
<rect x="861.75" y="92.75" width="14.5" height="14.5" rx="1.25" stroke="#3C3C3C" stroke-width="1.5"/>
<rect y="114" width="16" height="16" rx="2" fill="#FECDD3"/>
<rect x="21.75" y="114.75" width="14.5" height="14.5" rx="1.25" stroke="#3C3C3C" stroke-width="1.5"/>
<rect x="42.75" y="114.75" width="14.5" height="14.5" rx="1.25" stroke="#3C3C3C" stroke-width="1.5"/>
<rect x="63.75" y="114.75" width="14.5" height="14.5" rx="1.25" stroke="#3C3C3C" stroke-width="1.5"/>
<rect x="84.75" y="114.75" width="14.5" height="14.5" rx="1.25" stroke="#3C3C3C" stroke-width="1.5"/>
<rect x="105.75" y="114.75" width="14.5" height="14.5" rx="1.25" stroke="#3C3C3C" stroke-width="1.5"/>
<rect x="126.75" y="114.75" width="14.5" height="14.5" rx="1.25" stroke="#3C3C3C" stroke-width="1.5"/>
<rect x="147.75" y="114.75" width="14.5" height="14.5" rx="1.25" stroke="#3C3C3C" stroke-width="1.5"/>
<rect x="168.75" y="114.75" width="14.5" height="14.5" rx="1.25" stroke="#3C3C3C" stroke-width="1.5"/>
<rect x="189" y="114" width="16" height="16" rx="2" fill="#991B1B"/>
<rect x="210.75" y="114.75" width="14.5" height="14.5" rx="1.25" stroke="#3C3C3C" stroke-width="1.5"/>
<rect x="231.75" y="114.75" width="14.5" height="14.5" rx="1.25" stroke="#3C3C3C" stroke-width="1.5"/>
<rect x="252" y="114" width="16" height="16" rx="2" fill="#D66172"/>
<rect x="273.75" y="114.75" width="14.5" height="14.5" rx="1.25" stroke="#3C3C3C" stroke-width="1.5"/>
<rect x="294.75" y="114.75" width="14.5" height="14.5" rx="1.25" stroke="#3C3C3C" stroke-width="1.5"/>
<rect x="315.75" y="114.75" width="14.5" height="14.5" rx="1.25" stroke="#3C3C3C" stroke-width="1.5"/>
<rect x="336.75" y="114.75" width="14.5" height="14.5" rx="1.25" stroke="#3C3C3C" stroke-width="1.5"/>
<rect x="357.75" y="114.75" width="14.5" height="14.5" rx="1.25" stroke="#3C3C3C" stroke-width="1.5"/>
<rect x="378" y="114" width="16" height="16" rx="2" fill="#E11D48"/>
<rect x="399.75" y="114.75" width="14.5" height="14.5" rx="1.25" stroke="#3C3C3C" stroke-width="1.5"/>
<rect x="420.75" y="114.75" width="14.5" height="14.5" rx="1.25" stroke="#3C3C3C" stroke-width="1.5"/>
<rect x="441.75" y="114.75" width="14.5" height="14.5" rx="1.25" stroke="#3C3C3C" stroke-width="1.5"/>
<rect x="462.75" y="114.75" width="14.5" height="14.5" rx="1.25" stroke="#3C3C3C" stroke-width="1.5"/>
<rect x="483.75" y="114.75" width="14.5" height="14.5" rx="1.25" stroke="#3C3C3C" stroke-width="1.5"/>
<rect x="504.75" y="114.75" width="14.5" height="14.5" rx="1.25" stroke="#3C3C3C" stroke-width="1.5"/>
<rect x="525.75" y="114.75" width="14.5" height="14.5" rx="1.25" stroke="#3C3C3C" stroke-width="1.5"/>
<rect x="546.75" y="114.75" width="14.5" height="14.5" rx="1.25" stroke="#3C3C3C" stroke-width="1.5"/>
<rect x="567.75" y="114.75" width="14.5" height="14.5" rx="1.25" stroke="#3C3C3C" stroke-width="1.5"/>
<rect x="588.75" y="114.75" width="14.5" height="14.5" rx="1.25" stroke="#3C3C3C" stroke-width="1.5"/>
<rect x="609.75" y="114.75" width="14.5" height="14.5" rx="1.25" stroke="#3C3C3C" stroke-width="1.5"/>
<rect x="630" y="114" width="16" height="16" rx="2" fill="#E9D5FF"/>
<rect x="651.75" y="114.75" width="14.5" height="14.5" rx="1.25" stroke="#3C3C3C" stroke-width="1.5"/>
<rect x="672" y="114" width="16" height="16" rx="2" fill="#E11D48"/>
<rect x="693" y="114" width="16" height="16" rx="2" fill="#E11D48"/>
<rect x="714.75" y="114.75" width="14.5" height="14.5" rx="1.25" stroke="#3C3C3C" stroke-width="1.5"/>
<rect x="735.75" y="114.75" width="14.5" height="14.5" rx="1.25" stroke="#3C3C3C" stroke-width="1.5"/>
<rect x="756.75" y="114.75" width="14.5" height="14.5" rx="1.25" stroke="#3C3C3C" stroke-width="1.5"/>
<rect x="777.75" y="114.75" width="14.5" height="14.5" rx="1.25" stroke="#3C3C3C" stroke-width="1.5"/>
<rect x="798.75" y="114.75" width="14.5" height="14.5" rx="1.25" stroke="#3C3C3C" stroke-width="1.5"/>
<rect x="819.75" y="114.75" width="14.5" height="14.5" rx="1.25" stroke="#3C3C3C" stroke-width="1.5"/>
<rect x="840.75" y="114.75" width="14.5" height="14.5" rx="1.25" stroke="#3C3C3C" stroke-width="1.5"/>
<rect x="861.75" y="114.75" width="14.5" height="14.5" rx="1.25" stroke="#3C3C3C" stroke-width="1.5"/>
<rect x="0.75" y="136.75" width="14.5" height="14.5" rx="1.25" stroke="#3C3C3C" stroke-width="1.5"/>
<rect x="21.75" y="136.75" width="14.5" height="14.5" rx="1.25" stroke="#3C3C3C" stroke-width="1.5"/>
<rect x="42.75" y="136.75" width="14.5" height="14.5" rx="1.25" stroke="#3C3C3C" stroke-width="1.5"/>
<rect x="63.75" y="136.75" width="14.5" height="14.5" rx="1.25" stroke="#3C3C3C" stroke-width="1.5"/>
<rect x="84" y="136" width="16" height="16" rx="2" fill="#E11D48"/>
<rect x="105.75" y="136.75" width="14.5" height="14.5" rx="1.25" stroke="#3C3C3C" stroke-width="1.5"/>
<rect x="126.75" y="136.75" width="14.5" height="14.5" rx="1.25" stroke="#3C3C3C" stroke-width="1.5"/>
<rect x="147.75" y="136.75" width="14.5" height="14.5" rx="1.25" stroke="#3C3C3C" stroke-width="1.5"/>
<rect x="168.75" y="136.75" width="14.5" height="14.5" rx="1.25" stroke="#3C3C3C" stroke-width="1.5"/>
<rect x="189.75" y="136.75" width="14.5" height="14.5" rx="1.25" stroke="#3C3C3C" stroke-width="1.5"/>
<rect x="210.75" y="136.75" width="14.5" height="14.5" rx="1.25" stroke="#3C3C3C" stroke-width="1.5"/>
<rect x="231.75" y="136.75" width="14.5" height="14.5" rx="1.25" stroke="#3C3C3C" stroke-width="1.5"/>
<rect x="252" y="136" width="16" height="16" rx="2" fill="#9F1239"/>
<rect x="273.75" y="136.75" width="14.5" height="14.5" rx="1.25" stroke="#3C3C3C" stroke-width="1.5"/>
<rect x="294.75" y="136.75" width="14.5" height="14.5" rx="1.25" stroke="#3C3C3C" stroke-width="1.5"/>
<rect x="315.75" y="136.75" width="14.5" height="14.5" rx="1.25" stroke="#3C3C3C" stroke-width="1.5"/>
<rect x="336" y="136" width="16" height="16" rx="2" fill="#E11D48"/>
<rect x="357.75" y="136.75" width="14.5" height="14.5" rx="1.25" stroke="#3C3C3C" stroke-width="1.5"/>
<rect x="378.75" y="136.75" width="14.5" height="14.5" rx="1.25" stroke="#3C3C3C" stroke-width="1.5"/>
<rect x="399.75" y="136.75" width="14.5" height="14.5" rx="1.25" stroke="#3C3C3C" stroke-width="1.5"/>
<rect x="420.75" y="136.75" width="14.5" height="14.5" rx="1.25" stroke="#3C3C3C" stroke-width="1.5"/>
<rect x="441.75" y="136.75" width="14.5" height="14.5" rx="1.25" stroke="#3C3C3C" stroke-width="1.5"/>
<rect x="462.75" y="136.75" width="14.5" height="14.5" rx="1.25" stroke="#3C3C3C" stroke-width="1.5"/>
<rect x="483.75" y="136.75" width="14.5" height="14.5" rx="1.25" stroke="#3C3C3C" stroke-width="1.5"/>
<rect x="504.75" y="136.75" width="14.5" height="14.5" rx="1.25" stroke="#3C3C3C" stroke-width="1.5"/>
<rect x="525.75" y="136.75" width="14.5" height="14.5" rx="1.25" stroke="#3C3C3C" stroke-width="1.5"/>
<rect x="546.75" y="136.75" width="14.5" height="14.5" rx="1.25" stroke="#3C3C3C" stroke-width="1.5"/>
<rect x="567.75" y="136.75" width="14.5" height="14.5" rx="1.25" stroke="#3C3C3C" stroke-width="1.5"/>
<rect x="588.75" y="136.75" width="14.5" height="14.5" rx="1.25" stroke="#3C3C3C" stroke-width="1.5"/>
<rect x="609.75" y="136.75" width="14.5" height="14.5" rx="1.25" stroke="#3C3C3C" stroke-width="1.5"/>
<rect x="630.75" y="136.75" width="14.5" height="14.5" rx="1.25" stroke="#3C3C3C" stroke-width="1.5"/>
<rect x="651.75" y="136.75" width="14.5" height="14.5" rx="1.25" stroke="#3C3C3C" stroke-width="1.5"/>
<rect x="672.75" y="136.75" width="14.5" height="14.5" rx="1.25" stroke="#3C3C3C" stroke-width="1.5"/>
<rect x="693.75" y="136.75" width="14.5" height="14.5" rx="1.25" stroke="#3C3C3C" stroke-width="1.5"/>
<rect x="714.75" y="136.75" width="14.5" height="14.5" rx="1.25" stroke="#3C3C3C" stroke-width="1.5"/>
<rect x="735" y="136" width="16" height="16" rx="2" fill="#D66172"/>
<rect x="756" y="136" width="16" height="16" rx="2" fill="#E11D48"/>
<rect x="777.75" y="136.75" width="14.5" height="14.5" rx="1.25" stroke="#3C3C3C" stroke-width="1.5"/>
<rect x="798" y="136" width="16" height="16" rx="2" fill="#E11D48"/>
<rect x="819.75" y="136.75" width="14.5" height="14.5" rx="1.25" stroke="#3C3C3C" stroke-width="1.5"/>
<rect x="840.75" y="136.75" width="14.5" height="14.5" rx="1.25" stroke="#3C3C3C" stroke-width="1.5"/>
<rect x="861.75" y="136.75" width="14.5" height="14.5" rx="1.25" stroke="#3C3C3C" stroke-width="1.5"/>
<rect x="861.75" y="158.75" width="14.5" height="14.5" rx="1.25" stroke="#3C3C3C" stroke-width="1.5"/>
</svg>
