<svg width="118" height="48" viewBox="0 0 118 48" fill="none" xmlns="http://www.w3.org/2000/svg">
<g clip-path="url(#clip0_93_909)">
<mask id="mask0_93_909" style="mask-type:luminance" maskUnits="userSpaceOnUse" x="0" y="0" width="118" height="48">
<path d="M118 0H0V47.7993H118V0Z" fill="white"/>
</mask>
<g mask="url(#mask0_93_909)">
<path d="M27.0645 47.5489V35.5071L27.3164 35.2559H29.8338L30.0857 35.5071V47.5489L29.8338 47.8002H27.3164L27.0645 47.5489Z" fill="#FAFAFA"/>
<path d="M27.0645 12.2922V0.251114L27.3164 0H29.8338L30.0857 0.251114V12.2922L29.8338 12.5434H27.3164L27.0645 12.2922Z" fill="#FAFAFA"/>
<path d="M16.1221 38.868H15.7661L13.9863 37.0936V36.7388L18.1424 32.5981L20.0271 32.5991L20.2799 32.8492V34.7274L16.1221 38.868Z" fill="#FAFAFA"/>
<path d="M16.1201 8.93213H15.7642L13.9844 10.7066V11.0613L18.1405 15.2021L20.0251 15.2012L20.278 14.9509V13.0729L16.1201 8.93213Z" fill="#FAFAFA"/>
<path d="M0.251992 22.3945H17.3707L17.6227 22.6456V25.1541L17.3707 25.4053H0.251992L0 25.1541V22.6456L0.251992 22.3945Z" fill="#FAFAFA"/>
<path d="M101.637 22.3945H117.75L118.002 22.6456V25.1541L117.75 25.4053H100.631L100.379 25.1541L101.385 22.6456L101.637 22.3945Z" fill="#FAFAFA"/>
<path d="M48.8733 24.9708L48.6214 25.222H40.8121L40.5602 25.473C40.5602 25.9753 41.0643 27.481 43.0793 27.481C43.8352 27.481 44.5902 27.23 44.8424 26.7277L45.0943 26.4767H48.1173L48.3692 26.7277C48.1173 28.2336 46.8583 30.4935 43.0793 30.4935C38.7972 30.4935 36.7812 27.481 36.7812 23.9671C36.7812 20.4534 38.7962 17.4409 42.8271 17.4409C46.8583 17.4409 48.8733 20.4534 48.8733 23.9671V24.9717V24.9708ZM45.0943 22.4605C45.0943 22.2094 44.8424 20.4525 42.8271 20.4525C40.8121 20.4525 40.5602 22.2094 40.5602 22.4605L40.8121 22.7117H44.8424L45.0943 22.4605Z" fill="#FAFAFA"/>
<path d="M55.9261 26.4765C55.9261 26.9785 56.178 27.2298 56.682 27.2298H58.9489L59.2011 27.4808V29.991L58.9489 30.2423H56.682C54.4149 30.2423 52.3999 29.2377 52.3999 26.4765V20.9537L52.1478 20.7026H50.3849L50.1328 20.4514V17.9412L50.3849 17.6901H52.1478L52.3999 17.439V15.1798L52.6518 14.9287H55.6749L55.9268 15.1798V17.439L56.1789 17.6901H58.9499L59.202 17.9412V20.4514L58.9499 20.7026H56.1789L55.9268 20.9537V26.4765H55.9261Z" fill="#FAFAFA"/>
<path d="M65.2459 30.2428H62.2228L61.9707 29.9915V12.922L62.2228 12.6709H65.2459L65.4978 12.922V29.9915L65.2459 30.2428Z" fill="#FAFAFA"/>
<path d="M72.0467 15.6834H69.0236L68.7715 15.4323V12.922L69.0236 12.6709H72.0467L72.2986 12.922V15.4323L72.0467 15.6834ZM72.0467 30.2428H69.0236L68.7715 29.9915V17.9425L69.0236 17.6914H72.0467L72.2986 17.9425V29.9915L72.0467 30.2428Z" fill="#FAFAFA"/>
<path d="M83.8856 12.922V15.4323L83.6334 15.6834H81.3666C80.8625 15.6834 80.6104 15.9345 80.6104 16.4367V17.4412L80.8625 17.6923H83.3815L83.6334 17.9434V20.4537L83.3815 20.7048H80.8625L80.6104 20.9559V29.9924L80.3585 30.2434H77.3354L77.0835 29.9924V20.9559L76.8314 20.7048H75.0685L74.8164 20.4537V17.9434L75.0685 17.6923H76.8314L77.0835 17.4412V16.4367C77.0835 13.6754 79.0985 12.6709 81.3656 12.6709H83.6325L83.8847 12.922H83.8856Z" fill="#FAFAFA"/>
<path d="M93.2057 30.4937C92.1976 33.0039 91.1907 34.5098 87.6636 34.5098H86.4036L86.1517 34.2586V31.7483L86.4036 31.4973H87.6636C88.9227 31.4973 89.1746 31.2461 89.4267 30.4928V30.2417L85.3965 20.4518V17.9415L85.6486 17.6904H87.9155L88.1676 17.9415L91.1907 26.4768H91.4426L94.4657 17.9415L94.7176 17.6904H96.9847L97.2366 17.9415V20.4518L93.2066 30.4928L93.2057 30.4937Z" fill="#FAFAFA"/>
<path d="M31.2176 30.2428L30.9657 29.9915L30.9673 22.7181C30.9673 21.4634 30.4723 20.4905 28.9523 20.4589C28.1708 20.4387 27.2766 20.4572 26.3213 20.4976L26.1786 20.6433L26.1805 29.9915L25.9284 30.2428H22.9063L22.6543 29.9915V17.8082L22.9063 17.5571L29.7074 17.4956C33.1146 17.4956 34.4935 19.8285 34.4935 22.4617V29.9915L34.2416 30.2428H31.2176Z" fill="#FAFAFA"/>
</g>
</g>
<defs>
<clipPath id="clip0_93_909">
<rect width="118" height="48" fill="white"/>
</clipPath>
</defs>
</svg>
